M48
; DRILL file {KiCad 8.0.5-8.0.5-0~ubuntu24.04.1} date 2024-09-29T15:13:07-0300
; FORMAT={-:-/ absolute / inch / decimal}
; #@! TF.CreationDate,2024-09-29T15:13:07-03:00
; #@! TF.GenerationSoftware,Kicad,Pcbnew,8.0.5-8.0.5-0~ubuntu24.04.1
; #@! TF.FileFunction,Plated,1,2,PTH
FMAT,2
INCH
; #@! TA.AperFunction,Plated,PTH,ComponentDrill
T1C0.0315
; #@! TA.AperFunction,Plated,PTH,ComponentDrill
T2C0.0394
; #@! TA.AperFunction,Plated,PTH,ComponentDrill
T3C0.0472
; #@! TA.AperFunction,Plated,PTH,ComponentDrill
T4C0.0551
%
G90
G05
T1
X2.0314Y-1.2155
X2.0314Y-1.4124
X2.0314Y-1.6191
X2.0314Y-1.7175
X2.0472Y-3.7008
X2.0472Y-3.8976
X2.0472Y-4.1043
X2.0472Y-4.2028
X2.0669Y-6.2205
X2.0669Y-6.4173
X2.0669Y-6.624
X2.0669Y-6.7224
X2.0783Y-1.0581
X2.0941Y-3.5433
X2.1138Y-6.063
X2.2629Y-1.8848
X2.2787Y-4.3701
X2.2873Y-1.6092
X2.2873Y-1.7077
X2.2984Y-6.8898
X2.3031Y-4.0945
X2.3031Y-4.1929
X2.3228Y-6.6142
X2.3228Y-6.7126
X2.3783Y-1.0581
X2.3941Y-3.5433
X2.4138Y-6.063
X2.4251Y-1.1837
X2.4251Y-1.4837
X2.4409Y-3.6689
X2.4409Y-3.9689
X2.4606Y-6.1886
X2.4606Y-6.4886
X2.5039Y-1.747
X2.5197Y-4.2323
X2.5394Y-6.752
X2.5629Y-1.8848
X2.5787Y-4.3701
X2.5984Y-6.8898
X2.7157Y-1.1518
X2.7157Y-1.2518
X2.7157Y-1.3518
X2.7157Y-1.4518
X2.7315Y-3.637
X2.7315Y-3.737
X2.7315Y-3.837
X2.7315Y-3.937
X2.7512Y-6.1567
X2.7512Y-6.2567
X2.7512Y-6.3567
X2.7512Y-6.4567
X2.8039Y-1.747
X2.8197Y-4.2323
X2.8263Y-0.8218
X2.8394Y-6.752
X2.8421Y-3.3071
X2.8618Y-5.8268
X2.9322Y-1.747
X2.948Y-4.2323
X2.9677Y-6.752
X3.0157Y-1.1518
X3.0157Y-1.2518
X3.0157Y-1.3518
X3.0157Y-1.4518
X3.0315Y-3.637
X3.0315Y-3.737
X3.0315Y-3.837
X3.0315Y-3.937
X3.0512Y-6.1567
X3.0512Y-6.2567
X3.0512Y-6.3567
X3.0512Y-6.4567
X3.1263Y-0.8218
X3.1421Y-3.3071
X3.1618Y-5.8268
X3.2322Y-1.747
X3.248Y-4.2323
X3.2677Y-6.752
X3.2716Y-0.8809
X3.2874Y-3.3661
X3.3071Y-5.8858
X3.3109Y-1.164
X3.3109Y-1.464
X3.3268Y-3.6492
X3.3268Y-3.9492
X3.3465Y-6.1689
X3.3465Y-6.4689
X3.3503Y-0.8809
X3.3661Y-3.3661
X3.3858Y-5.8858
X3.4487Y-1.747
X3.4646Y-4.2323
X3.4843Y-6.752
X3.5275Y-1.747
X3.5433Y-4.2323
X3.563Y-6.752
X3.5668Y-1.1715
X3.5668Y-1.4715
X3.5827Y-3.6567
X3.5827Y-3.9567
X3.6024Y-6.1764
X3.6024Y-6.4764
X3.8031Y-1.164
X3.8031Y-1.464
X3.8189Y-3.6492
X3.8189Y-3.9492
X3.8386Y-6.1689
X3.8386Y-6.4689
X3.9999Y-1.3435
X3.9999Y-1.4419
X4.0157Y-3.8287
X4.0157Y-3.9272
X4.0354Y-6.3484
X4.0354Y-6.4469
X7.2244Y-1.2205
X7.2244Y-1.4173
X7.2244Y-1.624
X7.2244Y-1.7224
X7.2441Y-3.6811
X7.2441Y-3.878
X7.2441Y-4.0846
X7.2441Y-4.1831
X7.2638Y-6.1811
X7.2638Y-6.378
X7.2638Y-6.5846
X7.2638Y-6.6831
X7.2713Y-1.063
X7.2909Y-3.5236
X7.3106Y-6.0236
X7.4559Y-1.8898
X7.4756Y-4.3504
X7.4803Y-1.6142
X7.4803Y-1.7126
X7.4953Y-6.8504
X7.5Y-4.0748
X7.5Y-4.1732
X7.5197Y-6.5748
X7.5197Y-6.6732
X7.5713Y-1.063
X7.5909Y-3.5236
X7.6106Y-6.0236
X7.6181Y-1.1886
X7.6181Y-1.4886
X7.6378Y-3.6492
X7.6378Y-3.9492
X7.6575Y-6.1492
X7.6575Y-6.4492
X7.6969Y-1.752
X7.7165Y-4.2126
X7.7362Y-6.7126
X7.7559Y-1.8898
X7.7756Y-4.3504
X7.7953Y-6.8504
X7.9087Y-1.1567
X7.9087Y-1.2567
X7.9087Y-1.3567
X7.9087Y-1.4567
X7.9283Y-3.6173
X7.9283Y-3.7173
X7.9283Y-3.8173
X7.9283Y-3.9173
X7.948Y-6.1173
X7.948Y-6.2173
X7.948Y-6.3173
X7.948Y-6.4173
X7.9969Y-1.752
X8.0165Y-4.2126
X8.0193Y-0.8268
X8.0362Y-6.7126
X8.039Y-3.2874
X8.0587Y-5.7874
X8.1252Y-1.752
X8.1449Y-4.2126
X8.1646Y-6.7126
X8.2087Y-1.1567
X8.2087Y-1.2567
X8.2087Y-1.3567
X8.2087Y-1.4567
X8.2283Y-3.6173
X8.2283Y-3.7173
X8.2283Y-3.8173
X8.2283Y-3.9173
X8.248Y-6.1173
X8.248Y-6.2173
X8.248Y-6.3173
X8.248Y-6.4173
X8.3193Y-0.8268
X8.339Y-3.2874
X8.3587Y-5.7874
X8.4252Y-1.752
X8.4449Y-4.2126
X8.4646Y-0.8858
X8.4646Y-6.7126
X8.4843Y-3.3465
X8.5039Y-1.1689
X8.5039Y-1.4689
X8.5039Y-5.8465
X8.5236Y-3.6295
X8.5236Y-3.9295
X8.5433Y-0.8858
X8.5433Y-6.1295
X8.5433Y-6.4295
X8.563Y-3.3465
X8.5827Y-5.8465
X8.6417Y-1.752
X8.6614Y-4.2126
X8.6811Y-6.7126
X8.7205Y-1.752
X8.7402Y-4.2126
X8.7598Y-1.1764
X8.7598Y-1.4764
X8.7598Y-6.7126
X8.7795Y-3.637
X8.7795Y-3.937
X8.7992Y-6.137
X8.7992Y-6.437
X8.9961Y-1.1689
X8.9961Y-1.4689
X9.0157Y-3.6295
X9.0157Y-3.9295
X9.0354Y-6.1295
X9.0354Y-6.4295
X9.1929Y-1.3484
X9.1929Y-1.4469
X9.2126Y-3.8091
X9.2126Y-3.9075
X9.2323Y-6.3091
X9.2323Y-6.4075
T3
X2.0905Y-2.2372
X2.1063Y-4.7224
X2.126Y-7.2421
X2.2873Y-2.2372
X2.3031Y-4.7224
X2.3228Y-7.2421
X2.4842Y-2.2372
X2.5Y-4.7224
X2.5197Y-7.2421
X3.5275Y-2.2372
X3.5433Y-4.7224
X3.563Y-7.2421
X3.7243Y-2.2372
X3.7402Y-4.7224
X3.7598Y-7.2421
X3.9212Y-2.2372
X3.937Y-4.7224
X3.9567Y-7.2421
X7.2835Y-2.2421
X7.3031Y-4.7028
X7.3228Y-7.2028
X7.4803Y-2.2421
X7.5Y-4.7028
X7.5197Y-7.2028
X7.6772Y-2.2421
X7.6969Y-4.7028
X7.7165Y-7.2028
X8.7205Y-2.2421
X8.7402Y-4.7028
X8.7598Y-7.2028
X8.9173Y-2.2421
X8.937Y-4.7028
X8.9567Y-7.2028
X9.1142Y-2.2421
X9.1339Y-4.7028
X9.1535Y-7.2028
T4
X1.118Y-1.2262
X1.118Y-1.8652
X1.1339Y-3.7114
X1.1339Y-4.3504
X1.1535Y-6.2311
X1.1535Y-6.8701
X1.618Y-1.2262
X1.618Y-1.8652
X1.6339Y-3.7114
X1.6339Y-4.3504
X1.6535Y-6.2311
X1.6535Y-6.8701
X4.3962Y-1.2307
X4.3962Y-1.8697
X4.412Y-3.7159
X4.412Y-4.3549
X4.4317Y-6.2356
X4.4317Y-6.8746
X4.8962Y-1.2307
X4.8962Y-1.8697
X4.912Y-3.7159
X4.912Y-4.3549
X4.9317Y-6.2356
X4.9317Y-6.8746
X6.311Y-1.2311
X6.311Y-1.8701
X6.3307Y-3.6917
X6.3307Y-4.3307
X6.3504Y-6.1917
X6.3504Y-6.8307
X6.811Y-1.2311
X6.811Y-1.8701
X6.8307Y-3.6917
X6.8307Y-4.3307
X6.8504Y-6.1917
X6.8504Y-6.8307
X9.5892Y-1.2356
X9.5892Y-1.8746
X9.6089Y-3.6963
X9.6089Y-4.3352
X9.6285Y-6.1963
X9.6285Y-6.8352
X10.0892Y-1.2356
X10.0892Y-1.8746
X10.1089Y-3.6963
X10.1089Y-4.3352
X10.1285Y-6.1963
X10.1285Y-6.8352
T2
G00X2.9291Y-2.1211
M15
G01X3.0078Y-2.1211
M16
G05
G00X2.9291Y-2.3573
M15
G01X3.0078Y-2.3573
M16
G05
G00X2.9449Y-4.6063
M15
G01X3.0236Y-4.6063
M16
G05
G00X2.9449Y-4.8425
M15
G01X3.0236Y-4.8425
M16
G05
G00X2.9646Y-7.126
M15
G01X3.0433Y-7.126
M16
G05
G00X2.9646Y-7.3622
M15
G01X3.0433Y-7.3622
M16
G05
G00X3.1535Y-2.2785
M15
G01X3.1535Y-2.1998
M16
G05
G00X3.1693Y-4.7638
M15
G01X3.1693Y-4.685
M16
G05
G00X3.189Y-7.2835
M15
G01X3.189Y-7.2047
M16
G05
G00X8.122Y-2.126
M15
G01X8.2008Y-2.126
M16
G05
G00X8.122Y-2.3622
M15
G01X8.2008Y-2.3622
M16
G05
G00X8.1417Y-4.5866
M15
G01X8.2205Y-4.5866
M16
G05
G00X8.1417Y-4.8228
M15
G01X8.2205Y-4.8228
M16
G05
G00X8.1614Y-7.0866
M15
G01X8.2402Y-7.0866
M16
G05
G00X8.1614Y-7.3228
M15
G01X8.2402Y-7.3228
M16
G05
G00X8.3465Y-2.2835
M15
G01X8.3465Y-2.2047
M16
G05
G00X8.3661Y-4.7441
M15
G01X8.3661Y-4.6654
M16
G05
G00X8.3858Y-7.2441
M15
G01X8.3858Y-7.1654
M16
G05
M30
