%TF.GenerationSoftware,KiCad,Pcbnew,8.0.5-8.0.5-0~ubuntu24.04.1*%
%TF.CreationDate,2024-09-29T15:16:05-03:00*%
%TF.ProjectId,MXR Distortion,4d585220-4469-4737-946f-7274696f6e2e,rev?*%
%TF.SameCoordinates,Original*%
%TF.FileFunction,Copper,L2,Bot*%
%TF.FilePolarity,Positive*%
%FSLAX46Y46*%
G04 Gerber Fmt 4.6, Leading zero omitted, Abs format (unit mm)*
G04 Created by KiCad (PCBNEW 8.0.5-8.0.5-0~ubuntu24.04.1) date 2024-09-29 15:16:05*
%MOMM*%
%LPD*%
G01*
G04 APERTURE LIST*
G04 Aperture macros list*
%AMRoundRect*
0 Rectangle with rounded corners*
0 $1 Rounding radius*
0 $2 $3 $4 $5 $6 $7 $8 $9 X,Y pos of 4 corners*
0 Add a 4 corners polygon primitive as box body*
4,1,4,$2,$3,$4,$5,$6,$7,$8,$9,$2,$3,0*
0 Add four circle primitives for the rounded corners*
1,1,$1+$1,$2,$3*
1,1,$1+$1,$4,$5*
1,1,$1+$1,$6,$7*
1,1,$1+$1,$8,$9*
0 Add four rect primitives between the rounded corners*
20,1,$1+$1,$2,$3,$4,$5,0*
20,1,$1+$1,$4,$5,$6,$7,0*
20,1,$1+$1,$6,$7,$8,$9,0*
20,1,$1+$1,$8,$9,$2,$3,0*%
G04 Aperture macros list end*
%TA.AperFunction,ComponentPad*%
%ADD10C,1.600000*%
%TD*%
%TA.AperFunction,ComponentPad*%
%ADD11O,1.600000X1.600000*%
%TD*%
%TA.AperFunction,ComponentPad*%
%ADD12C,3.000000*%
%TD*%
%TA.AperFunction,ComponentPad*%
%ADD13R,3.000000X3.000000*%
%TD*%
%TA.AperFunction,ComponentPad*%
%ADD14R,1.600000X1.600000*%
%TD*%
%TA.AperFunction,ComponentPad*%
%ADD15R,3.500000X3.500000*%
%TD*%
%TA.AperFunction,ComponentPad*%
%ADD16RoundRect,0.750000X1.000000X-0.750000X1.000000X0.750000X-1.000000X0.750000X-1.000000X-0.750000X0*%
%TD*%
%TA.AperFunction,ComponentPad*%
%ADD17RoundRect,0.875000X0.875000X-0.875000X0.875000X0.875000X-0.875000X0.875000X-0.875000X-0.875000X0*%
%TD*%
G04 APERTURE END LIST*
D10*
%TO.P,R6,1*%
%TO.N,+4.5v*%
X207380000Y-170500000D03*
D11*
%TO.P,R6,2*%
%TO.N,+9v*%
X215000000Y-170500000D03*
%TD*%
D12*
%TO.P,J1,S*%
%TO.N,Net-(C1-Pad2)*%
X28800000Y-110500000D03*
%TO.P,J1,SN*%
%TO.N,N/C*%
X28800000Y-94270000D03*
%TO.P,J1,T*%
%TO.N,GND*%
X41500000Y-110500000D03*
%TO.P,J1,TN*%
%TO.N,N/C*%
X41500000Y-94270000D03*
%TD*%
D10*
%TO.P,R7,1*%
%TO.N,GND*%
X196000000Y-107000000D03*
D11*
%TO.P,R7,2*%
%TO.N,+4.5v*%
X203620000Y-107000000D03*
%TD*%
D10*
%TO.P,C1,1*%
%TO.N,GND*%
X51597876Y-43624879D03*
%TO.P,C1,2*%
%TO.N,Net-(C1-Pad2)*%
X51597876Y-41124879D03*
%TD*%
D13*
%TO.P,RV2,1,1*%
%TO.N,GND*%
X53500000Y-119950000D03*
D12*
%TO.P,RV2,2,2*%
X58500000Y-119950000D03*
%TO.P,RV2,3,3*%
%TO.N,Net-(R3-Pad1)*%
X63500000Y-119950000D03*
%TD*%
D14*
%TO.P,D1,1,K*%
%TO.N,Net-(D1-K)*%
X91000000Y-100500000D03*
D11*
%TO.P,D1,2,A*%
%TO.N,GND*%
X91000000Y-92880000D03*
%TD*%
D15*
%TO.P,J3,1*%
%TO.N,+9v*%
X207300000Y-54000000D03*
D16*
%TO.P,J3,2*%
%TO.N,GND*%
X207300000Y-60000000D03*
D17*
%TO.P,J3,3*%
%TO.N,N/C*%
X212000000Y-57000000D03*
%TD*%
D10*
%TO.P,C3,1*%
%TO.N,Net-(U1--)*%
X59000000Y-170500000D03*
%TO.P,C3,2*%
%TO.N,Net-(C3-Pad2)*%
X59000000Y-168000000D03*
%TD*%
D13*
%TO.P,RV2,1,1*%
%TO.N,GND*%
X186000000Y-182950000D03*
D12*
%TO.P,RV2,2,2*%
X191000000Y-182950000D03*
%TO.P,RV2,3,3*%
%TO.N,Net-(R3-Pad1)*%
X196000000Y-182950000D03*
%TD*%
%TO.P,J2,S*%
%TO.N,Net-(J2-PadS)*%
X256765000Y-93885000D03*
%TO.P,J2,SN*%
%TO.N,N/C*%
X256765000Y-110115000D03*
%TO.P,J2,T*%
%TO.N,GND*%
X244065000Y-93885000D03*
%TO.P,J2,TN*%
%TO.N,N/C*%
X244065000Y-110115000D03*
%TD*%
D10*
%TO.P,R1,1*%
%TO.N,Net-(C2-Pad1)*%
X184690000Y-27000000D03*
D11*
%TO.P,R1,2*%
%TO.N,Net-(U1-+)*%
X192310000Y-27000000D03*
%TD*%
D14*
%TO.P,C4,1*%
%TO.N,Net-(C4-Pad1)*%
X217000000Y-22500000D03*
D10*
%TO.P,C4,2*%
%TO.N,Net-(C4-Pad2)*%
X215000000Y-22500000D03*
%TD*%
D12*
%TO.P,J2,S*%
%TO.N,Net-(J2-PadS)*%
X257265000Y-157385000D03*
%TO.P,J2,SN*%
%TO.N,N/C*%
X257265000Y-173615000D03*
%TO.P,J2,T*%
%TO.N,GND*%
X244565000Y-157385000D03*
%TO.P,J2,TN*%
%TO.N,N/C*%
X244565000Y-173615000D03*
%TD*%
D10*
%TO.P,R4,1*%
%TO.N,Net-(U1--)*%
X204190000Y-83500000D03*
D11*
%TO.P,R4,2*%
%TO.N,Net-(C4-Pad2)*%
X211810000Y-83500000D03*
%TD*%
D10*
%TO.P,C2,1*%
%TO.N,Net-(C2-Pad1)*%
X52500000Y-158000000D03*
%TO.P,C2,2*%
%TO.N,Net-(C1-Pad2)*%
X52500000Y-163000000D03*
%TD*%
%TO.P,R3,1*%
%TO.N,Net-(R3-Pad1)*%
X66000000Y-175000000D03*
D11*
%TO.P,R3,2*%
%TO.N,Net-(C3-Pad2)*%
X58380000Y-175000000D03*
%TD*%
D13*
%TO.P,RV1,1,1*%
%TO.N,Net-(D1-K)*%
X221500000Y-56950000D03*
D12*
%TO.P,RV1,2,2*%
%TO.N,Net-(J2-PadS)*%
X226500000Y-56950000D03*
%TO.P,RV1,3,3*%
%TO.N,GND*%
X231500000Y-56950000D03*
%TD*%
%TO.P,J1,S*%
%TO.N,Net-(C1-Pad2)*%
X160300000Y-47500000D03*
%TO.P,J1,SN*%
%TO.N,N/C*%
X160300000Y-31270000D03*
%TO.P,J1,T*%
%TO.N,GND*%
X173000000Y-47500000D03*
%TO.P,J1,TN*%
%TO.N,N/C*%
X173000000Y-31270000D03*
%TD*%
D10*
%TO.P,R4,1*%
%TO.N,Net-(U1--)*%
X71787876Y-20874879D03*
D11*
%TO.P,R4,2*%
%TO.N,Net-(C4-Pad2)*%
X79407876Y-20874879D03*
%TD*%
D10*
%TO.P,R2,1*%
%TO.N,+4.5v*%
X194000000Y-100310000D03*
D11*
%TO.P,R2,2*%
%TO.N,Net-(U1-+)*%
X194000000Y-92690000D03*
%TD*%
D14*
%TO.P,U1,1,NULL*%
%TO.N,unconnected-(U1-NULL-Pad1)*%
X201380000Y-91880000D03*
D11*
%TO.P,U1,2,-*%
%TO.N,Net-(U1--)*%
X201380000Y-94420000D03*
%TO.P,U1,3,+*%
%TO.N,Net-(U1-+)*%
X201380000Y-96960000D03*
%TO.P,U1,4,V-*%
%TO.N,GND*%
X201380000Y-99500000D03*
%TO.P,U1,5,NULL*%
%TO.N,unconnected-(U1-NULL-Pad5)*%
X209000000Y-99500000D03*
%TO.P,U1,6*%
%TO.N,Net-(C4-Pad2)*%
X209000000Y-96960000D03*
%TO.P,U1,7,V+*%
%TO.N,+9v*%
X209000000Y-94420000D03*
%TO.P,U1,8,NC*%
%TO.N,unconnected-(U1-NC-Pad8)*%
X209000000Y-91880000D03*
%TD*%
D14*
%TO.P,U1,1,NULL*%
%TO.N,unconnected-(U1-NULL-Pad1)*%
X69380000Y-92380000D03*
D11*
%TO.P,U1,2,-*%
%TO.N,Net-(U1--)*%
X69380000Y-94920000D03*
%TO.P,U1,3,+*%
%TO.N,Net-(U1-+)*%
X69380000Y-97460000D03*
%TO.P,U1,4,V-*%
%TO.N,GND*%
X69380000Y-100000000D03*
%TO.P,U1,5,NULL*%
%TO.N,unconnected-(U1-NULL-Pad5)*%
X77000000Y-100000000D03*
%TO.P,U1,6*%
%TO.N,Net-(C4-Pad2)*%
X77000000Y-97460000D03*
%TO.P,U1,7,V+*%
%TO.N,+9v*%
X77000000Y-94920000D03*
%TO.P,U1,8,NC*%
%TO.N,unconnected-(U1-NC-Pad8)*%
X77000000Y-92380000D03*
%TD*%
D10*
%TO.P,R3,1*%
%TO.N,Net-(R3-Pad1)*%
X197000000Y-48000000D03*
D11*
%TO.P,R3,2*%
%TO.N,Net-(C3-Pad2)*%
X189380000Y-48000000D03*
%TD*%
D14*
%TO.P,C6,1*%
%TO.N,+4.5v*%
X219500000Y-44500000D03*
D10*
%TO.P,C6,2*%
%TO.N,GND*%
X221500000Y-44500000D03*
%TD*%
%TO.P,C5,1*%
%TO.N,Net-(D1-K)*%
X101597876Y-36624879D03*
%TO.P,C5,2*%
%TO.N,GND*%
X101597876Y-34124879D03*
%TD*%
D14*
%TO.P,D1,1,K*%
%TO.N,Net-(D1-K)*%
X222500000Y-37500000D03*
D11*
%TO.P,D1,2,A*%
%TO.N,GND*%
X222500000Y-29880000D03*
%TD*%
D10*
%TO.P,R3,1*%
%TO.N,Net-(R3-Pad1)*%
X197500000Y-110500000D03*
D11*
%TO.P,R3,2*%
%TO.N,Net-(C3-Pad2)*%
X189880000Y-110500000D03*
%TD*%
D10*
%TO.P,C1,1*%
%TO.N,GND*%
X52000000Y-106750000D03*
%TO.P,C1,2*%
%TO.N,Net-(C1-Pad2)*%
X52000000Y-104250000D03*
%TD*%
%TO.P,R6,1*%
%TO.N,+4.5v*%
X75380000Y-171500000D03*
D11*
%TO.P,R6,2*%
%TO.N,+9v*%
X83000000Y-171500000D03*
%TD*%
D10*
%TO.P,C1,1*%
%TO.N,GND*%
X183500000Y-43750000D03*
%TO.P,C1,2*%
%TO.N,Net-(C1-Pad2)*%
X183500000Y-41250000D03*
%TD*%
%TO.P,C2,1*%
%TO.N,Net-(C2-Pad1)*%
X184500000Y-157000000D03*
%TO.P,C2,2*%
%TO.N,Net-(C1-Pad2)*%
X184500000Y-162000000D03*
%TD*%
D12*
%TO.P,J1,S*%
%TO.N,Net-(C1-Pad2)*%
X160800000Y-110000000D03*
%TO.P,J1,SN*%
%TO.N,N/C*%
X160800000Y-93770000D03*
%TO.P,J1,T*%
%TO.N,GND*%
X173500000Y-110000000D03*
%TO.P,J1,TN*%
%TO.N,N/C*%
X173500000Y-93770000D03*
%TD*%
D10*
%TO.P,R5,1*%
%TO.N,Net-(C4-Pad1)*%
X85000000Y-156690000D03*
D11*
%TO.P,R5,2*%
%TO.N,Net-(D1-K)*%
X85000000Y-164310000D03*
%TD*%
D13*
%TO.P,RV1,1,1*%
%TO.N,Net-(D1-K)*%
X89597876Y-56824879D03*
D12*
%TO.P,RV1,2,2*%
%TO.N,Net-(J2-PadS)*%
X94597876Y-56824879D03*
%TO.P,RV1,3,3*%
%TO.N,GND*%
X99597876Y-56824879D03*
%TD*%
D10*
%TO.P,C1,1*%
%TO.N,GND*%
X184500000Y-169750000D03*
%TO.P,C1,2*%
%TO.N,Net-(C1-Pad2)*%
X184500000Y-167250000D03*
%TD*%
%TO.P,C2,1*%
%TO.N,Net-(C2-Pad1)*%
X183500000Y-31000000D03*
%TO.P,C2,2*%
%TO.N,Net-(C1-Pad2)*%
X183500000Y-36000000D03*
%TD*%
%TO.P,R1,1*%
%TO.N,Net-(C2-Pad1)*%
X53690000Y-154000000D03*
D11*
%TO.P,R1,2*%
%TO.N,Net-(U1-+)*%
X61310000Y-154000000D03*
%TD*%
D14*
%TO.P,D2,1,K*%
%TO.N,GND*%
X97500000Y-156690000D03*
D11*
%TO.P,D2,2,A*%
%TO.N,Net-(D1-K)*%
X97500000Y-164310000D03*
%TD*%
D14*
%TO.P,U1,1,NULL*%
%TO.N,unconnected-(U1-NULL-Pad1)*%
X201880000Y-155380000D03*
D11*
%TO.P,U1,2,-*%
%TO.N,Net-(U1--)*%
X201880000Y-157920000D03*
%TO.P,U1,3,+*%
%TO.N,Net-(U1-+)*%
X201880000Y-160460000D03*
%TO.P,U1,4,V-*%
%TO.N,GND*%
X201880000Y-163000000D03*
%TO.P,U1,5,NULL*%
%TO.N,unconnected-(U1-NULL-Pad5)*%
X209500000Y-163000000D03*
%TO.P,U1,6*%
%TO.N,Net-(C4-Pad2)*%
X209500000Y-160460000D03*
%TO.P,U1,7,V+*%
%TO.N,+9v*%
X209500000Y-157920000D03*
%TO.P,U1,8,NC*%
%TO.N,unconnected-(U1-NC-Pad8)*%
X209500000Y-155380000D03*
%TD*%
D15*
%TO.P,J3,1*%
%TO.N,+9v*%
X76300000Y-181000000D03*
D16*
%TO.P,J3,2*%
%TO.N,GND*%
X76300000Y-187000000D03*
D17*
%TO.P,J3,3*%
%TO.N,N/C*%
X81000000Y-184000000D03*
%TD*%
D10*
%TO.P,R3,1*%
%TO.N,Net-(R3-Pad1)*%
X65500000Y-111000000D03*
D11*
%TO.P,R3,2*%
%TO.N,Net-(C3-Pad2)*%
X57880000Y-111000000D03*
%TD*%
D14*
%TO.P,C4,1*%
%TO.N,Net-(C4-Pad1)*%
X85500000Y-85500000D03*
D10*
%TO.P,C4,2*%
%TO.N,Net-(C4-Pad2)*%
X83500000Y-85500000D03*
%TD*%
D14*
%TO.P,D2,1,K*%
%TO.N,GND*%
X228500000Y-29690000D03*
D11*
%TO.P,D2,2,A*%
%TO.N,Net-(D1-K)*%
X228500000Y-37310000D03*
%TD*%
D14*
%TO.P,D2,1,K*%
%TO.N,GND*%
X229500000Y-155690000D03*
D11*
%TO.P,D2,2,A*%
%TO.N,Net-(D1-K)*%
X229500000Y-163310000D03*
%TD*%
D10*
%TO.P,C5,1*%
%TO.N,Net-(D1-K)*%
X234500000Y-162750000D03*
%TO.P,C5,2*%
%TO.N,GND*%
X234500000Y-160250000D03*
%TD*%
%TO.P,R3,1*%
%TO.N,Net-(R3-Pad1)*%
X198000000Y-174000000D03*
D11*
%TO.P,R3,2*%
%TO.N,Net-(C3-Pad2)*%
X190380000Y-174000000D03*
%TD*%
D13*
%TO.P,RV1,1,1*%
%TO.N,Net-(D1-K)*%
X222000000Y-119450000D03*
D12*
%TO.P,RV1,2,2*%
%TO.N,Net-(J2-PadS)*%
X227000000Y-119450000D03*
%TO.P,RV1,3,3*%
%TO.N,GND*%
X232000000Y-119450000D03*
%TD*%
D13*
%TO.P,RV2,1,1*%
%TO.N,GND*%
X54000000Y-183950000D03*
D12*
%TO.P,RV2,2,2*%
X59000000Y-183950000D03*
%TO.P,RV2,3,3*%
%TO.N,Net-(R3-Pad1)*%
X64000000Y-183950000D03*
%TD*%
D10*
%TO.P,C1,1*%
%TO.N,GND*%
X52500000Y-170750000D03*
%TO.P,C1,2*%
%TO.N,Net-(C1-Pad2)*%
X52500000Y-168250000D03*
%TD*%
D14*
%TO.P,D1,1,K*%
%TO.N,Net-(D1-K)*%
X90597876Y-37374879D03*
D11*
%TO.P,D1,2,A*%
%TO.N,GND*%
X90597876Y-29754879D03*
%TD*%
D12*
%TO.P,J2,S*%
%TO.N,Net-(J2-PadS)*%
X124362876Y-31259879D03*
%TO.P,J2,SN*%
%TO.N,N/C*%
X124362876Y-47489879D03*
%TO.P,J2,T*%
%TO.N,GND*%
X111662876Y-31259879D03*
%TO.P,J2,TN*%
%TO.N,N/C*%
X111662876Y-47489879D03*
%TD*%
D14*
%TO.P,C4,1*%
%TO.N,Net-(C4-Pad1)*%
X85097876Y-22374879D03*
D10*
%TO.P,C4,2*%
%TO.N,Net-(C4-Pad2)*%
X83097876Y-22374879D03*
%TD*%
D14*
%TO.P,D2,1,K*%
%TO.N,GND*%
X97000000Y-92690000D03*
D11*
%TO.P,D2,2,A*%
%TO.N,Net-(D1-K)*%
X97000000Y-100310000D03*
%TD*%
D10*
%TO.P,R7,1*%
%TO.N,GND*%
X64500000Y-171500000D03*
D11*
%TO.P,R7,2*%
%TO.N,+4.5v*%
X72120000Y-171500000D03*
%TD*%
D14*
%TO.P,C6,1*%
%TO.N,+4.5v*%
X88000000Y-107500000D03*
D10*
%TO.P,C6,2*%
%TO.N,GND*%
X90000000Y-107500000D03*
%TD*%
%TO.P,R4,1*%
%TO.N,Net-(U1--)*%
X72690000Y-148000000D03*
D11*
%TO.P,R4,2*%
%TO.N,Net-(C4-Pad2)*%
X80310000Y-148000000D03*
%TD*%
D10*
%TO.P,R1,1*%
%TO.N,Net-(C2-Pad1)*%
X185190000Y-89500000D03*
D11*
%TO.P,R1,2*%
%TO.N,Net-(U1-+)*%
X192810000Y-89500000D03*
%TD*%
D10*
%TO.P,R6,1*%
%TO.N,+4.5v*%
X74880000Y-107500000D03*
D11*
%TO.P,R6,2*%
%TO.N,+9v*%
X82500000Y-107500000D03*
%TD*%
D12*
%TO.P,J1,S*%
%TO.N,Net-(C1-Pad2)*%
X161300000Y-173500000D03*
%TO.P,J1,SN*%
%TO.N,N/C*%
X161300000Y-157270000D03*
%TO.P,J1,T*%
%TO.N,GND*%
X174000000Y-173500000D03*
%TO.P,J1,TN*%
%TO.N,N/C*%
X174000000Y-157270000D03*
%TD*%
D14*
%TO.P,U1,1,NULL*%
%TO.N,unconnected-(U1-NULL-Pad1)*%
X200880000Y-29380000D03*
D11*
%TO.P,U1,2,-*%
%TO.N,Net-(U1--)*%
X200880000Y-31920000D03*
%TO.P,U1,3,+*%
%TO.N,Net-(U1-+)*%
X200880000Y-34460000D03*
%TO.P,U1,4,V-*%
%TO.N,GND*%
X200880000Y-37000000D03*
%TO.P,U1,5,NULL*%
%TO.N,unconnected-(U1-NULL-Pad5)*%
X208500000Y-37000000D03*
%TO.P,U1,6*%
%TO.N,Net-(C4-Pad2)*%
X208500000Y-34460000D03*
%TO.P,U1,7,V+*%
%TO.N,+9v*%
X208500000Y-31920000D03*
%TO.P,U1,8,NC*%
%TO.N,unconnected-(U1-NC-Pad8)*%
X208500000Y-29380000D03*
%TD*%
D14*
%TO.P,C4,1*%
%TO.N,Net-(C4-Pad1)*%
X218000000Y-148500000D03*
D10*
%TO.P,C4,2*%
%TO.N,Net-(C4-Pad2)*%
X216000000Y-148500000D03*
%TD*%
%TO.P,C3,1*%
%TO.N,Net-(U1--)*%
X58097876Y-43374879D03*
%TO.P,C3,2*%
%TO.N,Net-(C3-Pad2)*%
X58097876Y-40874879D03*
%TD*%
%TO.P,C2,1*%
%TO.N,Net-(C2-Pad1)*%
X51597876Y-30874879D03*
%TO.P,C2,2*%
%TO.N,Net-(C1-Pad2)*%
X51597876Y-35874879D03*
%TD*%
%TO.P,R1,1*%
%TO.N,Net-(C2-Pad1)*%
X53190000Y-90000000D03*
D11*
%TO.P,R1,2*%
%TO.N,Net-(U1-+)*%
X60810000Y-90000000D03*
%TD*%
D10*
%TO.P,R5,1*%
%TO.N,Net-(C4-Pad1)*%
X216500000Y-92190000D03*
D11*
%TO.P,R5,2*%
%TO.N,Net-(D1-K)*%
X216500000Y-99810000D03*
%TD*%
D10*
%TO.P,R4,1*%
%TO.N,Net-(U1--)*%
X203690000Y-21000000D03*
D11*
%TO.P,R4,2*%
%TO.N,Net-(C4-Pad2)*%
X211310000Y-21000000D03*
%TD*%
D10*
%TO.P,C5,1*%
%TO.N,Net-(D1-K)*%
X102000000Y-99750000D03*
%TO.P,C5,2*%
%TO.N,GND*%
X102000000Y-97250000D03*
%TD*%
D14*
%TO.P,D2,1,K*%
%TO.N,GND*%
X96597876Y-29564879D03*
D11*
%TO.P,D2,2,A*%
%TO.N,Net-(D1-K)*%
X96597876Y-37184879D03*
%TD*%
D10*
%TO.P,R1,1*%
%TO.N,Net-(C2-Pad1)*%
X185690000Y-153000000D03*
D11*
%TO.P,R1,2*%
%TO.N,Net-(U1-+)*%
X193310000Y-153000000D03*
%TD*%
D12*
%TO.P,J2,S*%
%TO.N,Net-(J2-PadS)*%
X125265000Y-158385000D03*
%TO.P,J2,SN*%
%TO.N,N/C*%
X125265000Y-174615000D03*
%TO.P,J2,T*%
%TO.N,GND*%
X112565000Y-158385000D03*
%TO.P,J2,TN*%
%TO.N,N/C*%
X112565000Y-174615000D03*
%TD*%
D14*
%TO.P,C6,1*%
%TO.N,+4.5v*%
X220000000Y-107000000D03*
D10*
%TO.P,C6,2*%
%TO.N,GND*%
X222000000Y-107000000D03*
%TD*%
%TO.P,R5,1*%
%TO.N,Net-(C4-Pad1)*%
X84097876Y-29564879D03*
D11*
%TO.P,R5,2*%
%TO.N,Net-(D1-K)*%
X84097876Y-37184879D03*
%TD*%
D10*
%TO.P,C5,1*%
%TO.N,Net-(D1-K)*%
X234000000Y-99250000D03*
%TO.P,C5,2*%
%TO.N,GND*%
X234000000Y-96750000D03*
%TD*%
D12*
%TO.P,J2,S*%
%TO.N,Net-(J2-PadS)*%
X124765000Y-94385000D03*
%TO.P,J2,SN*%
%TO.N,N/C*%
X124765000Y-110615000D03*
%TO.P,J2,T*%
%TO.N,GND*%
X112065000Y-94385000D03*
%TO.P,J2,TN*%
%TO.N,N/C*%
X112065000Y-110615000D03*
%TD*%
D10*
%TO.P,C3,1*%
%TO.N,Net-(U1--)*%
X191000000Y-169500000D03*
%TO.P,C3,2*%
%TO.N,Net-(C3-Pad2)*%
X191000000Y-167000000D03*
%TD*%
%TO.P,R2,1*%
%TO.N,+4.5v*%
X62500000Y-164810000D03*
D11*
%TO.P,R2,2*%
%TO.N,Net-(U1-+)*%
X62500000Y-157190000D03*
%TD*%
D14*
%TO.P,D1,1,K*%
%TO.N,Net-(D1-K)*%
X91500000Y-164500000D03*
D11*
%TO.P,D1,2,A*%
%TO.N,GND*%
X91500000Y-156880000D03*
%TD*%
D14*
%TO.P,C6,1*%
%TO.N,+4.5v*%
X220500000Y-170500000D03*
D10*
%TO.P,C6,2*%
%TO.N,GND*%
X222500000Y-170500000D03*
%TD*%
%TO.P,R2,1*%
%TO.N,+4.5v*%
X194500000Y-163810000D03*
D11*
%TO.P,R2,2*%
%TO.N,Net-(U1-+)*%
X194500000Y-156190000D03*
%TD*%
D14*
%TO.P,D1,1,K*%
%TO.N,Net-(D1-K)*%
X223500000Y-163500000D03*
D11*
%TO.P,D1,2,A*%
%TO.N,GND*%
X223500000Y-155880000D03*
%TD*%
D10*
%TO.P,R7,1*%
%TO.N,GND*%
X195500000Y-44500000D03*
D11*
%TO.P,R7,2*%
%TO.N,+4.5v*%
X203120000Y-44500000D03*
%TD*%
D10*
%TO.P,C3,1*%
%TO.N,Net-(U1--)*%
X190000000Y-43500000D03*
%TO.P,C3,2*%
%TO.N,Net-(C3-Pad2)*%
X190000000Y-41000000D03*
%TD*%
%TO.P,C3,1*%
%TO.N,Net-(U1--)*%
X190500000Y-106000000D03*
%TO.P,C3,2*%
%TO.N,Net-(C3-Pad2)*%
X190500000Y-103500000D03*
%TD*%
D13*
%TO.P,RV1,1,1*%
%TO.N,Net-(D1-K)*%
X222500000Y-182950000D03*
D12*
%TO.P,RV1,2,2*%
%TO.N,Net-(J2-PadS)*%
X227500000Y-182950000D03*
%TO.P,RV1,3,3*%
%TO.N,GND*%
X232500000Y-182950000D03*
%TD*%
D10*
%TO.P,R1,1*%
%TO.N,Net-(C2-Pad1)*%
X52787876Y-26874879D03*
D11*
%TO.P,R1,2*%
%TO.N,Net-(U1-+)*%
X60407876Y-26874879D03*
%TD*%
D10*
%TO.P,R7,1*%
%TO.N,GND*%
X196500000Y-170500000D03*
D11*
%TO.P,R7,2*%
%TO.N,+4.5v*%
X204120000Y-170500000D03*
%TD*%
D10*
%TO.P,C1,1*%
%TO.N,GND*%
X184000000Y-106250000D03*
%TO.P,C1,2*%
%TO.N,Net-(C1-Pad2)*%
X184000000Y-103750000D03*
%TD*%
%TO.P,R4,1*%
%TO.N,Net-(U1--)*%
X72190000Y-84000000D03*
D11*
%TO.P,R4,2*%
%TO.N,Net-(C4-Pad2)*%
X79810000Y-84000000D03*
%TD*%
D14*
%TO.P,C4,1*%
%TO.N,Net-(C4-Pad1)*%
X217500000Y-85000000D03*
D10*
%TO.P,C4,2*%
%TO.N,Net-(C4-Pad2)*%
X215500000Y-85000000D03*
%TD*%
D14*
%TO.P,U1,1,NULL*%
%TO.N,unconnected-(U1-NULL-Pad1)*%
X69880000Y-156380000D03*
D11*
%TO.P,U1,2,-*%
%TO.N,Net-(U1--)*%
X69880000Y-158920000D03*
%TO.P,U1,3,+*%
%TO.N,Net-(U1-+)*%
X69880000Y-161460000D03*
%TO.P,U1,4,V-*%
%TO.N,GND*%
X69880000Y-164000000D03*
%TO.P,U1,5,NULL*%
%TO.N,unconnected-(U1-NULL-Pad5)*%
X77500000Y-164000000D03*
%TO.P,U1,6*%
%TO.N,Net-(C4-Pad2)*%
X77500000Y-161460000D03*
%TO.P,U1,7,V+*%
%TO.N,+9v*%
X77500000Y-158920000D03*
%TO.P,U1,8,NC*%
%TO.N,unconnected-(U1-NC-Pad8)*%
X77500000Y-156380000D03*
%TD*%
D14*
%TO.P,C4,1*%
%TO.N,Net-(C4-Pad1)*%
X86000000Y-149500000D03*
D10*
%TO.P,C4,2*%
%TO.N,Net-(C4-Pad2)*%
X84000000Y-149500000D03*
%TD*%
D12*
%TO.P,J2,S*%
%TO.N,Net-(J2-PadS)*%
X256265000Y-31385000D03*
%TO.P,J2,SN*%
%TO.N,N/C*%
X256265000Y-47615000D03*
%TO.P,J2,T*%
%TO.N,GND*%
X243565000Y-31385000D03*
%TO.P,J2,TN*%
%TO.N,N/C*%
X243565000Y-47615000D03*
%TD*%
D10*
%TO.P,R3,1*%
%TO.N,Net-(R3-Pad1)*%
X65097876Y-47874879D03*
D11*
%TO.P,R3,2*%
%TO.N,Net-(C3-Pad2)*%
X57477876Y-47874879D03*
%TD*%
D10*
%TO.P,C3,1*%
%TO.N,Net-(U1--)*%
X58500000Y-106500000D03*
%TO.P,C3,2*%
%TO.N,Net-(C3-Pad2)*%
X58500000Y-104000000D03*
%TD*%
%TO.P,R6,1*%
%TO.N,+4.5v*%
X206880000Y-107000000D03*
D11*
%TO.P,R6,2*%
%TO.N,+9v*%
X214500000Y-107000000D03*
%TD*%
D14*
%TO.P,C6,1*%
%TO.N,+4.5v*%
X88500000Y-171500000D03*
D10*
%TO.P,C6,2*%
%TO.N,GND*%
X90500000Y-171500000D03*
%TD*%
%TO.P,R6,1*%
%TO.N,+4.5v*%
X74477876Y-44374879D03*
D11*
%TO.P,R6,2*%
%TO.N,+9v*%
X82097876Y-44374879D03*
%TD*%
D10*
%TO.P,R2,1*%
%TO.N,+4.5v*%
X62000000Y-100810000D03*
D11*
%TO.P,R2,2*%
%TO.N,Net-(U1-+)*%
X62000000Y-93190000D03*
%TD*%
D13*
%TO.P,RV2,1,1*%
%TO.N,GND*%
X53097876Y-56824879D03*
D12*
%TO.P,RV2,2,2*%
X58097876Y-56824879D03*
%TO.P,RV2,3,3*%
%TO.N,Net-(R3-Pad1)*%
X63097876Y-56824879D03*
%TD*%
D10*
%TO.P,R4,1*%
%TO.N,Net-(U1--)*%
X204690000Y-147000000D03*
D11*
%TO.P,R4,2*%
%TO.N,Net-(C4-Pad2)*%
X212310000Y-147000000D03*
%TD*%
D15*
%TO.P,J3,1*%
%TO.N,+9v*%
X75397876Y-53874879D03*
D16*
%TO.P,J3,2*%
%TO.N,GND*%
X75397876Y-59874879D03*
D17*
%TO.P,J3,3*%
%TO.N,N/C*%
X80097876Y-56874879D03*
%TD*%
D10*
%TO.P,R5,1*%
%TO.N,Net-(C4-Pad1)*%
X84500000Y-92690000D03*
D11*
%TO.P,R5,2*%
%TO.N,Net-(D1-K)*%
X84500000Y-100310000D03*
%TD*%
D10*
%TO.P,C5,1*%
%TO.N,Net-(D1-K)*%
X233500000Y-36750000D03*
%TO.P,C5,2*%
%TO.N,GND*%
X233500000Y-34250000D03*
%TD*%
%TO.P,R5,1*%
%TO.N,Net-(C4-Pad1)*%
X216000000Y-29690000D03*
D11*
%TO.P,R5,2*%
%TO.N,Net-(D1-K)*%
X216000000Y-37310000D03*
%TD*%
D13*
%TO.P,RV1,1,1*%
%TO.N,Net-(D1-K)*%
X90000000Y-119950000D03*
D12*
%TO.P,RV1,2,2*%
%TO.N,Net-(J2-PadS)*%
X95000000Y-119950000D03*
%TO.P,RV1,3,3*%
%TO.N,GND*%
X100000000Y-119950000D03*
%TD*%
D10*
%TO.P,R2,1*%
%TO.N,+4.5v*%
X61597876Y-37684879D03*
D11*
%TO.P,R2,2*%
%TO.N,Net-(U1-+)*%
X61597876Y-30064879D03*
%TD*%
D13*
%TO.P,RV2,1,1*%
%TO.N,GND*%
X185500000Y-119450000D03*
D12*
%TO.P,RV2,2,2*%
X190500000Y-119450000D03*
%TO.P,RV2,3,3*%
%TO.N,Net-(R3-Pad1)*%
X195500000Y-119450000D03*
%TD*%
D10*
%TO.P,R5,1*%
%TO.N,Net-(C4-Pad1)*%
X217000000Y-155690000D03*
D11*
%TO.P,R5,2*%
%TO.N,Net-(D1-K)*%
X217000000Y-163310000D03*
%TD*%
D15*
%TO.P,J3,1*%
%TO.N,+9v*%
X208300000Y-180000000D03*
D16*
%TO.P,J3,2*%
%TO.N,GND*%
X208300000Y-186000000D03*
D17*
%TO.P,J3,3*%
%TO.N,N/C*%
X213000000Y-183000000D03*
%TD*%
D14*
%TO.P,D1,1,K*%
%TO.N,Net-(D1-K)*%
X223000000Y-100000000D03*
D11*
%TO.P,D1,2,A*%
%TO.N,GND*%
X223000000Y-92380000D03*
%TD*%
D14*
%TO.P,C6,1*%
%TO.N,+4.5v*%
X87597876Y-44374879D03*
D10*
%TO.P,C6,2*%
%TO.N,GND*%
X89597876Y-44374879D03*
%TD*%
D13*
%TO.P,RV1,1,1*%
%TO.N,Net-(D1-K)*%
X90500000Y-183950000D03*
D12*
%TO.P,RV1,2,2*%
%TO.N,Net-(J2-PadS)*%
X95500000Y-183950000D03*
%TO.P,RV1,3,3*%
%TO.N,GND*%
X100500000Y-183950000D03*
%TD*%
%TO.P,J1,S*%
%TO.N,Net-(C1-Pad2)*%
X28397876Y-47374879D03*
%TO.P,J1,SN*%
%TO.N,N/C*%
X28397876Y-31144879D03*
%TO.P,J1,T*%
%TO.N,GND*%
X41097876Y-47374879D03*
%TO.P,J1,TN*%
%TO.N,N/C*%
X41097876Y-31144879D03*
%TD*%
D14*
%TO.P,U1,1,NULL*%
%TO.N,unconnected-(U1-NULL-Pad1)*%
X68977876Y-29254879D03*
D11*
%TO.P,U1,2,-*%
%TO.N,Net-(U1--)*%
X68977876Y-31794879D03*
%TO.P,U1,3,+*%
%TO.N,Net-(U1-+)*%
X68977876Y-34334879D03*
%TO.P,U1,4,V-*%
%TO.N,GND*%
X68977876Y-36874879D03*
%TO.P,U1,5,NULL*%
%TO.N,unconnected-(U1-NULL-Pad5)*%
X76597876Y-36874879D03*
%TO.P,U1,6*%
%TO.N,Net-(C4-Pad2)*%
X76597876Y-34334879D03*
%TO.P,U1,7,V+*%
%TO.N,+9v*%
X76597876Y-31794879D03*
%TO.P,U1,8,NC*%
%TO.N,unconnected-(U1-NC-Pad8)*%
X76597876Y-29254879D03*
%TD*%
D15*
%TO.P,J3,1*%
%TO.N,+9v*%
X75800000Y-117000000D03*
D16*
%TO.P,J3,2*%
%TO.N,GND*%
X75800000Y-123000000D03*
D17*
%TO.P,J3,3*%
%TO.N,N/C*%
X80500000Y-120000000D03*
%TD*%
D10*
%TO.P,R7,1*%
%TO.N,GND*%
X64000000Y-107500000D03*
D11*
%TO.P,R7,2*%
%TO.N,+4.5v*%
X71620000Y-107500000D03*
%TD*%
D10*
%TO.P,R6,1*%
%TO.N,+4.5v*%
X206380000Y-44500000D03*
D11*
%TO.P,R6,2*%
%TO.N,+9v*%
X214000000Y-44500000D03*
%TD*%
D10*
%TO.P,C2,1*%
%TO.N,Net-(C2-Pad1)*%
X184000000Y-93500000D03*
%TO.P,C2,2*%
%TO.N,Net-(C1-Pad2)*%
X184000000Y-98500000D03*
%TD*%
%TO.P,R2,1*%
%TO.N,+4.5v*%
X193500000Y-37810000D03*
D11*
%TO.P,R2,2*%
%TO.N,Net-(U1-+)*%
X193500000Y-30190000D03*
%TD*%
D10*
%TO.P,R7,1*%
%TO.N,GND*%
X63597876Y-44374879D03*
D11*
%TO.P,R7,2*%
%TO.N,+4.5v*%
X71217876Y-44374879D03*
%TD*%
D15*
%TO.P,J3,1*%
%TO.N,+9v*%
X207800000Y-116500000D03*
D16*
%TO.P,J3,2*%
%TO.N,GND*%
X207800000Y-122500000D03*
D17*
%TO.P,J3,3*%
%TO.N,N/C*%
X212500000Y-119500000D03*
%TD*%
D10*
%TO.P,C2,1*%
%TO.N,Net-(C2-Pad1)*%
X52000000Y-94000000D03*
%TO.P,C2,2*%
%TO.N,Net-(C1-Pad2)*%
X52000000Y-99000000D03*
%TD*%
%TO.P,C5,1*%
%TO.N,Net-(D1-K)*%
X102500000Y-163750000D03*
%TO.P,C5,2*%
%TO.N,GND*%
X102500000Y-161250000D03*
%TD*%
D14*
%TO.P,D2,1,K*%
%TO.N,GND*%
X229000000Y-92190000D03*
D11*
%TO.P,D2,2,A*%
%TO.N,Net-(D1-K)*%
X229000000Y-99810000D03*
%TD*%
D12*
%TO.P,J1,S*%
%TO.N,Net-(C1-Pad2)*%
X29300000Y-174500000D03*
%TO.P,J1,SN*%
%TO.N,N/C*%
X29300000Y-158270000D03*
%TO.P,J1,T*%
%TO.N,GND*%
X42000000Y-174500000D03*
%TO.P,J1,TN*%
%TO.N,N/C*%
X42000000Y-158270000D03*
%TD*%
D13*
%TO.P,RV2,1,1*%
%TO.N,GND*%
X185000000Y-56950000D03*
D12*
%TO.P,RV2,2,2*%
X190000000Y-56950000D03*
%TO.P,RV2,3,3*%
%TO.N,Net-(R3-Pad1)*%
X195000000Y-56950000D03*
%TD*%
M02*
