%TF.GenerationSoftware,KiCad,Pcbnew,8.0.5-8.0.5-0~ubuntu24.04.1*%
%TF.CreationDate,2024-09-29T15:16:05-03:00*%
%TF.ProjectId,MXR Distortion,4d585220-4469-4737-946f-7274696f6e2e,rev?*%
%TF.SameCoordinates,Original*%
%TF.FileFunction,Profile,NP*%
%FSLAX46Y46*%
G04 Gerber Fmt 4.6, Leading zero omitted, Abs format (unit mm)*
G04 Created by KiCad (PCBNEW 8.0.5-8.0.5-0~ubuntu24.04.1) date 2024-09-29 15:16:05*
%MOMM*%
%LPD*%
G01*
G04 APERTURE LIST*
%TA.AperFunction,Profile*%
%ADD10C,0.050000*%
%TD*%
%ADD11C,0.150000*%
G04 APERTURE END LIST*
D10*
X18902124Y-133625121D02*
X133902124Y-133625121D01*
X150402124Y-70625121D02*
X265402124Y-70625121D01*
X133902124Y-80125121D02*
X18902124Y-80125121D01*
X133902124Y-133625121D02*
X133902124Y-80125121D01*
X134402124Y-144125121D02*
X19402124Y-144125121D01*
X265402124Y-70625121D02*
X265402124Y-17125121D01*
X19402124Y-144125121D02*
X19402124Y-197625121D01*
X265902124Y-79625121D02*
X150902124Y-79625121D01*
X265402124Y-17125121D02*
X150402124Y-17125121D01*
X265902124Y-133125121D02*
X265902124Y-79625121D01*
X151402124Y-143125121D02*
X151402124Y-196625121D01*
X150402124Y-17125121D02*
X150402124Y-70625121D01*
X18500000Y-70500000D02*
X133500000Y-70500000D01*
X134402124Y-197625121D02*
X134402124Y-144125121D01*
X18500000Y-17000000D02*
X18500000Y-70500000D01*
X150902124Y-133125121D02*
X265902124Y-133125121D01*
X266402124Y-196625121D02*
X266402124Y-143125121D01*
X133500000Y-70500000D02*
X133500000Y-17000000D01*
X19402124Y-197625121D02*
X134402124Y-197625121D01*
X18902124Y-80125121D02*
X18902124Y-133625121D01*
X266402124Y-143125121D02*
X151402124Y-143125121D01*
X150902124Y-79625121D02*
X150902124Y-133125121D01*
X151402124Y-196625121D02*
X266402124Y-196625121D01*
X133500000Y-17000000D02*
X18500000Y-17000000D01*
D11*
X204378314Y-198429940D02*
X203806886Y-198429940D01*
X204092600Y-198429940D02*
X204092600Y-197429940D01*
X204092600Y-197429940D02*
X203997362Y-197572797D01*
X203997362Y-197572797D02*
X203902124Y-197668035D01*
X203902124Y-197668035D02*
X203806886Y-197715654D01*
X205330695Y-198429940D02*
X204759267Y-198429940D01*
X205044981Y-198429940D02*
X205044981Y-197429940D01*
X205044981Y-197429940D02*
X204949743Y-197572797D01*
X204949743Y-197572797D02*
X204854505Y-197668035D01*
X204854505Y-197668035D02*
X204759267Y-197715654D01*
X206235457Y-197429940D02*
X205759267Y-197429940D01*
X205759267Y-197429940D02*
X205711648Y-197906130D01*
X205711648Y-197906130D02*
X205759267Y-197858511D01*
X205759267Y-197858511D02*
X205854505Y-197810892D01*
X205854505Y-197810892D02*
X206092600Y-197810892D01*
X206092600Y-197810892D02*
X206187838Y-197858511D01*
X206187838Y-197858511D02*
X206235457Y-197906130D01*
X206235457Y-197906130D02*
X206283076Y-198001368D01*
X206283076Y-198001368D02*
X206283076Y-198239463D01*
X206283076Y-198239463D02*
X206235457Y-198334701D01*
X206235457Y-198334701D02*
X206187838Y-198382321D01*
X206187838Y-198382321D02*
X206092600Y-198429940D01*
X206092600Y-198429940D02*
X205854505Y-198429940D01*
X205854505Y-198429940D02*
X205759267Y-198382321D01*
X205759267Y-198382321D02*
X205711648Y-198334701D01*
X206711648Y-198334701D02*
X206759267Y-198382321D01*
X206759267Y-198382321D02*
X206711648Y-198429940D01*
X206711648Y-198429940D02*
X206664029Y-198382321D01*
X206664029Y-198382321D02*
X206711648Y-198334701D01*
X206711648Y-198334701D02*
X206711648Y-198429940D01*
X207378314Y-197429940D02*
X207473552Y-197429940D01*
X207473552Y-197429940D02*
X207568790Y-197477559D01*
X207568790Y-197477559D02*
X207616409Y-197525178D01*
X207616409Y-197525178D02*
X207664028Y-197620416D01*
X207664028Y-197620416D02*
X207711647Y-197810892D01*
X207711647Y-197810892D02*
X207711647Y-198048987D01*
X207711647Y-198048987D02*
X207664028Y-198239463D01*
X207664028Y-198239463D02*
X207616409Y-198334701D01*
X207616409Y-198334701D02*
X207568790Y-198382321D01*
X207568790Y-198382321D02*
X207473552Y-198429940D01*
X207473552Y-198429940D02*
X207378314Y-198429940D01*
X207378314Y-198429940D02*
X207283076Y-198382321D01*
X207283076Y-198382321D02*
X207235457Y-198334701D01*
X207235457Y-198334701D02*
X207187838Y-198239463D01*
X207187838Y-198239463D02*
X207140219Y-198048987D01*
X207140219Y-198048987D02*
X207140219Y-197810892D01*
X207140219Y-197810892D02*
X207187838Y-197620416D01*
X207187838Y-197620416D02*
X207235457Y-197525178D01*
X207235457Y-197525178D02*
X207283076Y-197477559D01*
X207283076Y-197477559D02*
X207378314Y-197429940D01*
X208330695Y-197429940D02*
X208425933Y-197429940D01*
X208425933Y-197429940D02*
X208521171Y-197477559D01*
X208521171Y-197477559D02*
X208568790Y-197525178D01*
X208568790Y-197525178D02*
X208616409Y-197620416D01*
X208616409Y-197620416D02*
X208664028Y-197810892D01*
X208664028Y-197810892D02*
X208664028Y-198048987D01*
X208664028Y-198048987D02*
X208616409Y-198239463D01*
X208616409Y-198239463D02*
X208568790Y-198334701D01*
X208568790Y-198334701D02*
X208521171Y-198382321D01*
X208521171Y-198382321D02*
X208425933Y-198429940D01*
X208425933Y-198429940D02*
X208330695Y-198429940D01*
X208330695Y-198429940D02*
X208235457Y-198382321D01*
X208235457Y-198382321D02*
X208187838Y-198334701D01*
X208187838Y-198334701D02*
X208140219Y-198239463D01*
X208140219Y-198239463D02*
X208092600Y-198048987D01*
X208092600Y-198048987D02*
X208092600Y-197810892D01*
X208092600Y-197810892D02*
X208140219Y-197620416D01*
X208140219Y-197620416D02*
X208187838Y-197525178D01*
X208187838Y-197525178D02*
X208235457Y-197477559D01*
X208235457Y-197477559D02*
X208330695Y-197429940D01*
X209283076Y-197429940D02*
X209378314Y-197429940D01*
X209378314Y-197429940D02*
X209473552Y-197477559D01*
X209473552Y-197477559D02*
X209521171Y-197525178D01*
X209521171Y-197525178D02*
X209568790Y-197620416D01*
X209568790Y-197620416D02*
X209616409Y-197810892D01*
X209616409Y-197810892D02*
X209616409Y-198048987D01*
X209616409Y-198048987D02*
X209568790Y-198239463D01*
X209568790Y-198239463D02*
X209521171Y-198334701D01*
X209521171Y-198334701D02*
X209473552Y-198382321D01*
X209473552Y-198382321D02*
X209378314Y-198429940D01*
X209378314Y-198429940D02*
X209283076Y-198429940D01*
X209283076Y-198429940D02*
X209187838Y-198382321D01*
X209187838Y-198382321D02*
X209140219Y-198334701D01*
X209140219Y-198334701D02*
X209092600Y-198239463D01*
X209092600Y-198239463D02*
X209044981Y-198048987D01*
X209044981Y-198048987D02*
X209044981Y-197810892D01*
X209044981Y-197810892D02*
X209092600Y-197620416D01*
X209092600Y-197620416D02*
X209140219Y-197525178D01*
X209140219Y-197525178D02*
X209187838Y-197477559D01*
X209187838Y-197477559D02*
X209283076Y-197429940D01*
X210235457Y-197429940D02*
X210330695Y-197429940D01*
X210330695Y-197429940D02*
X210425933Y-197477559D01*
X210425933Y-197477559D02*
X210473552Y-197525178D01*
X210473552Y-197525178D02*
X210521171Y-197620416D01*
X210521171Y-197620416D02*
X210568790Y-197810892D01*
X210568790Y-197810892D02*
X210568790Y-198048987D01*
X210568790Y-198048987D02*
X210521171Y-198239463D01*
X210521171Y-198239463D02*
X210473552Y-198334701D01*
X210473552Y-198334701D02*
X210425933Y-198382321D01*
X210425933Y-198382321D02*
X210330695Y-198429940D01*
X210330695Y-198429940D02*
X210235457Y-198429940D01*
X210235457Y-198429940D02*
X210140219Y-198382321D01*
X210140219Y-198382321D02*
X210092600Y-198334701D01*
X210092600Y-198334701D02*
X210044981Y-198239463D01*
X210044981Y-198239463D02*
X209997362Y-198048987D01*
X209997362Y-198048987D02*
X209997362Y-197810892D01*
X209997362Y-197810892D02*
X210044981Y-197620416D01*
X210044981Y-197620416D02*
X210092600Y-197525178D01*
X210092600Y-197525178D02*
X210140219Y-197477559D01*
X210140219Y-197477559D02*
X210235457Y-197429940D01*
X211759267Y-198429940D02*
X211759267Y-197763273D01*
X211759267Y-197858511D02*
X211806886Y-197810892D01*
X211806886Y-197810892D02*
X211902124Y-197763273D01*
X211902124Y-197763273D02*
X212044981Y-197763273D01*
X212044981Y-197763273D02*
X212140219Y-197810892D01*
X212140219Y-197810892D02*
X212187838Y-197906130D01*
X212187838Y-197906130D02*
X212187838Y-198429940D01*
X212187838Y-197906130D02*
X212235457Y-197810892D01*
X212235457Y-197810892D02*
X212330695Y-197763273D01*
X212330695Y-197763273D02*
X212473552Y-197763273D01*
X212473552Y-197763273D02*
X212568791Y-197810892D01*
X212568791Y-197810892D02*
X212616410Y-197906130D01*
X212616410Y-197906130D02*
X212616410Y-198429940D01*
X213092600Y-198429940D02*
X213092600Y-197763273D01*
X213092600Y-197858511D02*
X213140219Y-197810892D01*
X213140219Y-197810892D02*
X213235457Y-197763273D01*
X213235457Y-197763273D02*
X213378314Y-197763273D01*
X213378314Y-197763273D02*
X213473552Y-197810892D01*
X213473552Y-197810892D02*
X213521171Y-197906130D01*
X213521171Y-197906130D02*
X213521171Y-198429940D01*
X213521171Y-197906130D02*
X213568790Y-197810892D01*
X213568790Y-197810892D02*
X213664028Y-197763273D01*
X213664028Y-197763273D02*
X213806885Y-197763273D01*
X213806885Y-197763273D02*
X213902124Y-197810892D01*
X213902124Y-197810892D02*
X213949743Y-197906130D01*
X213949743Y-197906130D02*
X213949743Y-198429940D01*
D10*
X151402124Y-198625121D02*
X151402124Y-198538701D01*
X266402124Y-198625121D02*
X266402124Y-198538701D01*
X151402124Y-199125121D02*
X266402124Y-199125121D01*
X151402124Y-199125121D02*
X266402124Y-199125121D01*
X151402124Y-199125121D02*
X152528628Y-198538700D01*
X151402124Y-199125121D02*
X152528628Y-199711542D01*
X266402124Y-199125121D02*
X265275620Y-199711542D01*
X266402124Y-199125121D02*
X265275620Y-198538700D01*
D11*
X13902695Y-47532676D02*
X13902695Y-48008866D01*
X13902695Y-48008866D02*
X14378885Y-48056485D01*
X14378885Y-48056485D02*
X14331266Y-48008866D01*
X14331266Y-48008866D02*
X14283647Y-47913628D01*
X14283647Y-47913628D02*
X14283647Y-47675533D01*
X14283647Y-47675533D02*
X14331266Y-47580295D01*
X14331266Y-47580295D02*
X14378885Y-47532676D01*
X14378885Y-47532676D02*
X14474123Y-47485057D01*
X14474123Y-47485057D02*
X14712218Y-47485057D01*
X14712218Y-47485057D02*
X14807456Y-47532676D01*
X14807456Y-47532676D02*
X14855076Y-47580295D01*
X14855076Y-47580295D02*
X14902695Y-47675533D01*
X14902695Y-47675533D02*
X14902695Y-47913628D01*
X14902695Y-47913628D02*
X14855076Y-48008866D01*
X14855076Y-48008866D02*
X14807456Y-48056485D01*
X13997933Y-47104104D02*
X13950314Y-47056485D01*
X13950314Y-47056485D02*
X13902695Y-46961247D01*
X13902695Y-46961247D02*
X13902695Y-46723152D01*
X13902695Y-46723152D02*
X13950314Y-46627914D01*
X13950314Y-46627914D02*
X13997933Y-46580295D01*
X13997933Y-46580295D02*
X14093171Y-46532676D01*
X14093171Y-46532676D02*
X14188409Y-46532676D01*
X14188409Y-46532676D02*
X14331266Y-46580295D01*
X14331266Y-46580295D02*
X14902695Y-47151723D01*
X14902695Y-47151723D02*
X14902695Y-46532676D01*
X14807456Y-46104104D02*
X14855076Y-46056485D01*
X14855076Y-46056485D02*
X14902695Y-46104104D01*
X14902695Y-46104104D02*
X14855076Y-46151723D01*
X14855076Y-46151723D02*
X14807456Y-46104104D01*
X14807456Y-46104104D02*
X14902695Y-46104104D01*
X14331266Y-45485057D02*
X14283647Y-45580295D01*
X14283647Y-45580295D02*
X14236028Y-45627914D01*
X14236028Y-45627914D02*
X14140790Y-45675533D01*
X14140790Y-45675533D02*
X14093171Y-45675533D01*
X14093171Y-45675533D02*
X13997933Y-45627914D01*
X13997933Y-45627914D02*
X13950314Y-45580295D01*
X13950314Y-45580295D02*
X13902695Y-45485057D01*
X13902695Y-45485057D02*
X13902695Y-45294581D01*
X13902695Y-45294581D02*
X13950314Y-45199343D01*
X13950314Y-45199343D02*
X13997933Y-45151724D01*
X13997933Y-45151724D02*
X14093171Y-45104105D01*
X14093171Y-45104105D02*
X14140790Y-45104105D01*
X14140790Y-45104105D02*
X14236028Y-45151724D01*
X14236028Y-45151724D02*
X14283647Y-45199343D01*
X14283647Y-45199343D02*
X14331266Y-45294581D01*
X14331266Y-45294581D02*
X14331266Y-45485057D01*
X14331266Y-45485057D02*
X14378885Y-45580295D01*
X14378885Y-45580295D02*
X14426504Y-45627914D01*
X14426504Y-45627914D02*
X14521742Y-45675533D01*
X14521742Y-45675533D02*
X14712218Y-45675533D01*
X14712218Y-45675533D02*
X14807456Y-45627914D01*
X14807456Y-45627914D02*
X14855076Y-45580295D01*
X14855076Y-45580295D02*
X14902695Y-45485057D01*
X14902695Y-45485057D02*
X14902695Y-45294581D01*
X14902695Y-45294581D02*
X14855076Y-45199343D01*
X14855076Y-45199343D02*
X14807456Y-45151724D01*
X14807456Y-45151724D02*
X14712218Y-45104105D01*
X14712218Y-45104105D02*
X14521742Y-45104105D01*
X14521742Y-45104105D02*
X14426504Y-45151724D01*
X14426504Y-45151724D02*
X14378885Y-45199343D01*
X14378885Y-45199343D02*
X14331266Y-45294581D01*
X13902695Y-44770771D02*
X13902695Y-44104105D01*
X13902695Y-44104105D02*
X14902695Y-44532676D01*
X14236028Y-43294581D02*
X14902695Y-43294581D01*
X13855076Y-43532676D02*
X14569361Y-43770771D01*
X14569361Y-43770771D02*
X14569361Y-43151724D01*
X14902695Y-42723152D02*
X14902695Y-42532676D01*
X14902695Y-42532676D02*
X14855076Y-42437438D01*
X14855076Y-42437438D02*
X14807456Y-42389819D01*
X14807456Y-42389819D02*
X14664599Y-42294581D01*
X14664599Y-42294581D02*
X14474123Y-42246962D01*
X14474123Y-42246962D02*
X14093171Y-42246962D01*
X14093171Y-42246962D02*
X13997933Y-42294581D01*
X13997933Y-42294581D02*
X13950314Y-42342200D01*
X13950314Y-42342200D02*
X13902695Y-42437438D01*
X13902695Y-42437438D02*
X13902695Y-42627914D01*
X13902695Y-42627914D02*
X13950314Y-42723152D01*
X13950314Y-42723152D02*
X13997933Y-42770771D01*
X13997933Y-42770771D02*
X14093171Y-42818390D01*
X14093171Y-42818390D02*
X14331266Y-42818390D01*
X14331266Y-42818390D02*
X14426504Y-42770771D01*
X14426504Y-42770771D02*
X14474123Y-42723152D01*
X14474123Y-42723152D02*
X14521742Y-42627914D01*
X14521742Y-42627914D02*
X14521742Y-42437438D01*
X14521742Y-42437438D02*
X14474123Y-42342200D01*
X14474123Y-42342200D02*
X14426504Y-42294581D01*
X14426504Y-42294581D02*
X14331266Y-42246962D01*
X14902695Y-41056485D02*
X14236028Y-41056485D01*
X14331266Y-41056485D02*
X14283647Y-41008866D01*
X14283647Y-41008866D02*
X14236028Y-40913628D01*
X14236028Y-40913628D02*
X14236028Y-40770771D01*
X14236028Y-40770771D02*
X14283647Y-40675533D01*
X14283647Y-40675533D02*
X14378885Y-40627914D01*
X14378885Y-40627914D02*
X14902695Y-40627914D01*
X14378885Y-40627914D02*
X14283647Y-40580295D01*
X14283647Y-40580295D02*
X14236028Y-40485057D01*
X14236028Y-40485057D02*
X14236028Y-40342200D01*
X14236028Y-40342200D02*
X14283647Y-40246961D01*
X14283647Y-40246961D02*
X14378885Y-40199342D01*
X14378885Y-40199342D02*
X14902695Y-40199342D01*
X14902695Y-39723152D02*
X14236028Y-39723152D01*
X14331266Y-39723152D02*
X14283647Y-39675533D01*
X14283647Y-39675533D02*
X14236028Y-39580295D01*
X14236028Y-39580295D02*
X14236028Y-39437438D01*
X14236028Y-39437438D02*
X14283647Y-39342200D01*
X14283647Y-39342200D02*
X14378885Y-39294581D01*
X14378885Y-39294581D02*
X14902695Y-39294581D01*
X14378885Y-39294581D02*
X14283647Y-39246962D01*
X14283647Y-39246962D02*
X14236028Y-39151724D01*
X14236028Y-39151724D02*
X14236028Y-39008867D01*
X14236028Y-39008867D02*
X14283647Y-38913628D01*
X14283647Y-38913628D02*
X14378885Y-38866009D01*
X14378885Y-38866009D02*
X14902695Y-38866009D01*
D10*
X15097876Y-69874879D02*
X15011456Y-69874879D01*
X15097876Y-17000000D02*
X15011456Y-17000000D01*
X15597876Y-69874879D02*
X15597876Y-17000000D01*
X15597876Y-69874879D02*
X15597876Y-17000000D01*
X15597876Y-69874879D02*
X15011455Y-68748375D01*
X15597876Y-69874879D02*
X16184297Y-68748375D01*
X15597876Y-17000000D02*
X16184297Y-18126504D01*
X15597876Y-17000000D02*
X15011455Y-18126504D01*
D11*
X71476190Y-72304819D02*
X70904762Y-72304819D01*
X71190476Y-72304819D02*
X71190476Y-71304819D01*
X71190476Y-71304819D02*
X71095238Y-71447676D01*
X71095238Y-71447676D02*
X71000000Y-71542914D01*
X71000000Y-71542914D02*
X70904762Y-71590533D01*
X72428571Y-72304819D02*
X71857143Y-72304819D01*
X72142857Y-72304819D02*
X72142857Y-71304819D01*
X72142857Y-71304819D02*
X72047619Y-71447676D01*
X72047619Y-71447676D02*
X71952381Y-71542914D01*
X71952381Y-71542914D02*
X71857143Y-71590533D01*
X73333333Y-71304819D02*
X72857143Y-71304819D01*
X72857143Y-71304819D02*
X72809524Y-71781009D01*
X72809524Y-71781009D02*
X72857143Y-71733390D01*
X72857143Y-71733390D02*
X72952381Y-71685771D01*
X72952381Y-71685771D02*
X73190476Y-71685771D01*
X73190476Y-71685771D02*
X73285714Y-71733390D01*
X73285714Y-71733390D02*
X73333333Y-71781009D01*
X73333333Y-71781009D02*
X73380952Y-71876247D01*
X73380952Y-71876247D02*
X73380952Y-72114342D01*
X73380952Y-72114342D02*
X73333333Y-72209580D01*
X73333333Y-72209580D02*
X73285714Y-72257200D01*
X73285714Y-72257200D02*
X73190476Y-72304819D01*
X73190476Y-72304819D02*
X72952381Y-72304819D01*
X72952381Y-72304819D02*
X72857143Y-72257200D01*
X72857143Y-72257200D02*
X72809524Y-72209580D01*
X73809524Y-72209580D02*
X73857143Y-72257200D01*
X73857143Y-72257200D02*
X73809524Y-72304819D01*
X73809524Y-72304819D02*
X73761905Y-72257200D01*
X73761905Y-72257200D02*
X73809524Y-72209580D01*
X73809524Y-72209580D02*
X73809524Y-72304819D01*
X74476190Y-71304819D02*
X74571428Y-71304819D01*
X74571428Y-71304819D02*
X74666666Y-71352438D01*
X74666666Y-71352438D02*
X74714285Y-71400057D01*
X74714285Y-71400057D02*
X74761904Y-71495295D01*
X74761904Y-71495295D02*
X74809523Y-71685771D01*
X74809523Y-71685771D02*
X74809523Y-71923866D01*
X74809523Y-71923866D02*
X74761904Y-72114342D01*
X74761904Y-72114342D02*
X74714285Y-72209580D01*
X74714285Y-72209580D02*
X74666666Y-72257200D01*
X74666666Y-72257200D02*
X74571428Y-72304819D01*
X74571428Y-72304819D02*
X74476190Y-72304819D01*
X74476190Y-72304819D02*
X74380952Y-72257200D01*
X74380952Y-72257200D02*
X74333333Y-72209580D01*
X74333333Y-72209580D02*
X74285714Y-72114342D01*
X74285714Y-72114342D02*
X74238095Y-71923866D01*
X74238095Y-71923866D02*
X74238095Y-71685771D01*
X74238095Y-71685771D02*
X74285714Y-71495295D01*
X74285714Y-71495295D02*
X74333333Y-71400057D01*
X74333333Y-71400057D02*
X74380952Y-71352438D01*
X74380952Y-71352438D02*
X74476190Y-71304819D01*
X75428571Y-71304819D02*
X75523809Y-71304819D01*
X75523809Y-71304819D02*
X75619047Y-71352438D01*
X75619047Y-71352438D02*
X75666666Y-71400057D01*
X75666666Y-71400057D02*
X75714285Y-71495295D01*
X75714285Y-71495295D02*
X75761904Y-71685771D01*
X75761904Y-71685771D02*
X75761904Y-71923866D01*
X75761904Y-71923866D02*
X75714285Y-72114342D01*
X75714285Y-72114342D02*
X75666666Y-72209580D01*
X75666666Y-72209580D02*
X75619047Y-72257200D01*
X75619047Y-72257200D02*
X75523809Y-72304819D01*
X75523809Y-72304819D02*
X75428571Y-72304819D01*
X75428571Y-72304819D02*
X75333333Y-72257200D01*
X75333333Y-72257200D02*
X75285714Y-72209580D01*
X75285714Y-72209580D02*
X75238095Y-72114342D01*
X75238095Y-72114342D02*
X75190476Y-71923866D01*
X75190476Y-71923866D02*
X75190476Y-71685771D01*
X75190476Y-71685771D02*
X75238095Y-71495295D01*
X75238095Y-71495295D02*
X75285714Y-71400057D01*
X75285714Y-71400057D02*
X75333333Y-71352438D01*
X75333333Y-71352438D02*
X75428571Y-71304819D01*
X76380952Y-71304819D02*
X76476190Y-71304819D01*
X76476190Y-71304819D02*
X76571428Y-71352438D01*
X76571428Y-71352438D02*
X76619047Y-71400057D01*
X76619047Y-71400057D02*
X76666666Y-71495295D01*
X76666666Y-71495295D02*
X76714285Y-71685771D01*
X76714285Y-71685771D02*
X76714285Y-71923866D01*
X76714285Y-71923866D02*
X76666666Y-72114342D01*
X76666666Y-72114342D02*
X76619047Y-72209580D01*
X76619047Y-72209580D02*
X76571428Y-72257200D01*
X76571428Y-72257200D02*
X76476190Y-72304819D01*
X76476190Y-72304819D02*
X76380952Y-72304819D01*
X76380952Y-72304819D02*
X76285714Y-72257200D01*
X76285714Y-72257200D02*
X76238095Y-72209580D01*
X76238095Y-72209580D02*
X76190476Y-72114342D01*
X76190476Y-72114342D02*
X76142857Y-71923866D01*
X76142857Y-71923866D02*
X76142857Y-71685771D01*
X76142857Y-71685771D02*
X76190476Y-71495295D01*
X76190476Y-71495295D02*
X76238095Y-71400057D01*
X76238095Y-71400057D02*
X76285714Y-71352438D01*
X76285714Y-71352438D02*
X76380952Y-71304819D01*
X77333333Y-71304819D02*
X77428571Y-71304819D01*
X77428571Y-71304819D02*
X77523809Y-71352438D01*
X77523809Y-71352438D02*
X77571428Y-71400057D01*
X77571428Y-71400057D02*
X77619047Y-71495295D01*
X77619047Y-71495295D02*
X77666666Y-71685771D01*
X77666666Y-71685771D02*
X77666666Y-71923866D01*
X77666666Y-71923866D02*
X77619047Y-72114342D01*
X77619047Y-72114342D02*
X77571428Y-72209580D01*
X77571428Y-72209580D02*
X77523809Y-72257200D01*
X77523809Y-72257200D02*
X77428571Y-72304819D01*
X77428571Y-72304819D02*
X77333333Y-72304819D01*
X77333333Y-72304819D02*
X77238095Y-72257200D01*
X77238095Y-72257200D02*
X77190476Y-72209580D01*
X77190476Y-72209580D02*
X77142857Y-72114342D01*
X77142857Y-72114342D02*
X77095238Y-71923866D01*
X77095238Y-71923866D02*
X77095238Y-71685771D01*
X77095238Y-71685771D02*
X77142857Y-71495295D01*
X77142857Y-71495295D02*
X77190476Y-71400057D01*
X77190476Y-71400057D02*
X77238095Y-71352438D01*
X77238095Y-71352438D02*
X77333333Y-71304819D01*
X78857143Y-72304819D02*
X78857143Y-71638152D01*
X78857143Y-71733390D02*
X78904762Y-71685771D01*
X78904762Y-71685771D02*
X79000000Y-71638152D01*
X79000000Y-71638152D02*
X79142857Y-71638152D01*
X79142857Y-71638152D02*
X79238095Y-71685771D01*
X79238095Y-71685771D02*
X79285714Y-71781009D01*
X79285714Y-71781009D02*
X79285714Y-72304819D01*
X79285714Y-71781009D02*
X79333333Y-71685771D01*
X79333333Y-71685771D02*
X79428571Y-71638152D01*
X79428571Y-71638152D02*
X79571428Y-71638152D01*
X79571428Y-71638152D02*
X79666667Y-71685771D01*
X79666667Y-71685771D02*
X79714286Y-71781009D01*
X79714286Y-71781009D02*
X79714286Y-72304819D01*
X80190476Y-72304819D02*
X80190476Y-71638152D01*
X80190476Y-71733390D02*
X80238095Y-71685771D01*
X80238095Y-71685771D02*
X80333333Y-71638152D01*
X80333333Y-71638152D02*
X80476190Y-71638152D01*
X80476190Y-71638152D02*
X80571428Y-71685771D01*
X80571428Y-71685771D02*
X80619047Y-71781009D01*
X80619047Y-71781009D02*
X80619047Y-72304819D01*
X80619047Y-71781009D02*
X80666666Y-71685771D01*
X80666666Y-71685771D02*
X80761904Y-71638152D01*
X80761904Y-71638152D02*
X80904761Y-71638152D01*
X80904761Y-71638152D02*
X81000000Y-71685771D01*
X81000000Y-71685771D02*
X81047619Y-71781009D01*
X81047619Y-71781009D02*
X81047619Y-72304819D01*
D10*
X18500000Y-72500000D02*
X18500000Y-72413580D01*
X133500000Y-72500000D02*
X133500000Y-72413580D01*
X18500000Y-73000000D02*
X133500000Y-73000000D01*
X18500000Y-73000000D02*
X133500000Y-73000000D01*
X18500000Y-73000000D02*
X19626504Y-72413579D01*
X18500000Y-73000000D02*
X19626504Y-73586421D01*
X133500000Y-73000000D02*
X132373496Y-73586421D01*
X133500000Y-73000000D02*
X132373496Y-72413579D01*
D11*
X203378314Y-72429940D02*
X202806886Y-72429940D01*
X203092600Y-72429940D02*
X203092600Y-71429940D01*
X203092600Y-71429940D02*
X202997362Y-71572797D01*
X202997362Y-71572797D02*
X202902124Y-71668035D01*
X202902124Y-71668035D02*
X202806886Y-71715654D01*
X204330695Y-72429940D02*
X203759267Y-72429940D01*
X204044981Y-72429940D02*
X204044981Y-71429940D01*
X204044981Y-71429940D02*
X203949743Y-71572797D01*
X203949743Y-71572797D02*
X203854505Y-71668035D01*
X203854505Y-71668035D02*
X203759267Y-71715654D01*
X205235457Y-71429940D02*
X204759267Y-71429940D01*
X204759267Y-71429940D02*
X204711648Y-71906130D01*
X204711648Y-71906130D02*
X204759267Y-71858511D01*
X204759267Y-71858511D02*
X204854505Y-71810892D01*
X204854505Y-71810892D02*
X205092600Y-71810892D01*
X205092600Y-71810892D02*
X205187838Y-71858511D01*
X205187838Y-71858511D02*
X205235457Y-71906130D01*
X205235457Y-71906130D02*
X205283076Y-72001368D01*
X205283076Y-72001368D02*
X205283076Y-72239463D01*
X205283076Y-72239463D02*
X205235457Y-72334701D01*
X205235457Y-72334701D02*
X205187838Y-72382321D01*
X205187838Y-72382321D02*
X205092600Y-72429940D01*
X205092600Y-72429940D02*
X204854505Y-72429940D01*
X204854505Y-72429940D02*
X204759267Y-72382321D01*
X204759267Y-72382321D02*
X204711648Y-72334701D01*
X205711648Y-72334701D02*
X205759267Y-72382321D01*
X205759267Y-72382321D02*
X205711648Y-72429940D01*
X205711648Y-72429940D02*
X205664029Y-72382321D01*
X205664029Y-72382321D02*
X205711648Y-72334701D01*
X205711648Y-72334701D02*
X205711648Y-72429940D01*
X206378314Y-71429940D02*
X206473552Y-71429940D01*
X206473552Y-71429940D02*
X206568790Y-71477559D01*
X206568790Y-71477559D02*
X206616409Y-71525178D01*
X206616409Y-71525178D02*
X206664028Y-71620416D01*
X206664028Y-71620416D02*
X206711647Y-71810892D01*
X206711647Y-71810892D02*
X206711647Y-72048987D01*
X206711647Y-72048987D02*
X206664028Y-72239463D01*
X206664028Y-72239463D02*
X206616409Y-72334701D01*
X206616409Y-72334701D02*
X206568790Y-72382321D01*
X206568790Y-72382321D02*
X206473552Y-72429940D01*
X206473552Y-72429940D02*
X206378314Y-72429940D01*
X206378314Y-72429940D02*
X206283076Y-72382321D01*
X206283076Y-72382321D02*
X206235457Y-72334701D01*
X206235457Y-72334701D02*
X206187838Y-72239463D01*
X206187838Y-72239463D02*
X206140219Y-72048987D01*
X206140219Y-72048987D02*
X206140219Y-71810892D01*
X206140219Y-71810892D02*
X206187838Y-71620416D01*
X206187838Y-71620416D02*
X206235457Y-71525178D01*
X206235457Y-71525178D02*
X206283076Y-71477559D01*
X206283076Y-71477559D02*
X206378314Y-71429940D01*
X207330695Y-71429940D02*
X207425933Y-71429940D01*
X207425933Y-71429940D02*
X207521171Y-71477559D01*
X207521171Y-71477559D02*
X207568790Y-71525178D01*
X207568790Y-71525178D02*
X207616409Y-71620416D01*
X207616409Y-71620416D02*
X207664028Y-71810892D01*
X207664028Y-71810892D02*
X207664028Y-72048987D01*
X207664028Y-72048987D02*
X207616409Y-72239463D01*
X207616409Y-72239463D02*
X207568790Y-72334701D01*
X207568790Y-72334701D02*
X207521171Y-72382321D01*
X207521171Y-72382321D02*
X207425933Y-72429940D01*
X207425933Y-72429940D02*
X207330695Y-72429940D01*
X207330695Y-72429940D02*
X207235457Y-72382321D01*
X207235457Y-72382321D02*
X207187838Y-72334701D01*
X207187838Y-72334701D02*
X207140219Y-72239463D01*
X207140219Y-72239463D02*
X207092600Y-72048987D01*
X207092600Y-72048987D02*
X207092600Y-71810892D01*
X207092600Y-71810892D02*
X207140219Y-71620416D01*
X207140219Y-71620416D02*
X207187838Y-71525178D01*
X207187838Y-71525178D02*
X207235457Y-71477559D01*
X207235457Y-71477559D02*
X207330695Y-71429940D01*
X208283076Y-71429940D02*
X208378314Y-71429940D01*
X208378314Y-71429940D02*
X208473552Y-71477559D01*
X208473552Y-71477559D02*
X208521171Y-71525178D01*
X208521171Y-71525178D02*
X208568790Y-71620416D01*
X208568790Y-71620416D02*
X208616409Y-71810892D01*
X208616409Y-71810892D02*
X208616409Y-72048987D01*
X208616409Y-72048987D02*
X208568790Y-72239463D01*
X208568790Y-72239463D02*
X208521171Y-72334701D01*
X208521171Y-72334701D02*
X208473552Y-72382321D01*
X208473552Y-72382321D02*
X208378314Y-72429940D01*
X208378314Y-72429940D02*
X208283076Y-72429940D01*
X208283076Y-72429940D02*
X208187838Y-72382321D01*
X208187838Y-72382321D02*
X208140219Y-72334701D01*
X208140219Y-72334701D02*
X208092600Y-72239463D01*
X208092600Y-72239463D02*
X208044981Y-72048987D01*
X208044981Y-72048987D02*
X208044981Y-71810892D01*
X208044981Y-71810892D02*
X208092600Y-71620416D01*
X208092600Y-71620416D02*
X208140219Y-71525178D01*
X208140219Y-71525178D02*
X208187838Y-71477559D01*
X208187838Y-71477559D02*
X208283076Y-71429940D01*
X209235457Y-71429940D02*
X209330695Y-71429940D01*
X209330695Y-71429940D02*
X209425933Y-71477559D01*
X209425933Y-71477559D02*
X209473552Y-71525178D01*
X209473552Y-71525178D02*
X209521171Y-71620416D01*
X209521171Y-71620416D02*
X209568790Y-71810892D01*
X209568790Y-71810892D02*
X209568790Y-72048987D01*
X209568790Y-72048987D02*
X209521171Y-72239463D01*
X209521171Y-72239463D02*
X209473552Y-72334701D01*
X209473552Y-72334701D02*
X209425933Y-72382321D01*
X209425933Y-72382321D02*
X209330695Y-72429940D01*
X209330695Y-72429940D02*
X209235457Y-72429940D01*
X209235457Y-72429940D02*
X209140219Y-72382321D01*
X209140219Y-72382321D02*
X209092600Y-72334701D01*
X209092600Y-72334701D02*
X209044981Y-72239463D01*
X209044981Y-72239463D02*
X208997362Y-72048987D01*
X208997362Y-72048987D02*
X208997362Y-71810892D01*
X208997362Y-71810892D02*
X209044981Y-71620416D01*
X209044981Y-71620416D02*
X209092600Y-71525178D01*
X209092600Y-71525178D02*
X209140219Y-71477559D01*
X209140219Y-71477559D02*
X209235457Y-71429940D01*
X210759267Y-72429940D02*
X210759267Y-71763273D01*
X210759267Y-71858511D02*
X210806886Y-71810892D01*
X210806886Y-71810892D02*
X210902124Y-71763273D01*
X210902124Y-71763273D02*
X211044981Y-71763273D01*
X211044981Y-71763273D02*
X211140219Y-71810892D01*
X211140219Y-71810892D02*
X211187838Y-71906130D01*
X211187838Y-71906130D02*
X211187838Y-72429940D01*
X211187838Y-71906130D02*
X211235457Y-71810892D01*
X211235457Y-71810892D02*
X211330695Y-71763273D01*
X211330695Y-71763273D02*
X211473552Y-71763273D01*
X211473552Y-71763273D02*
X211568791Y-71810892D01*
X211568791Y-71810892D02*
X211616410Y-71906130D01*
X211616410Y-71906130D02*
X211616410Y-72429940D01*
X212092600Y-72429940D02*
X212092600Y-71763273D01*
X212092600Y-71858511D02*
X212140219Y-71810892D01*
X212140219Y-71810892D02*
X212235457Y-71763273D01*
X212235457Y-71763273D02*
X212378314Y-71763273D01*
X212378314Y-71763273D02*
X212473552Y-71810892D01*
X212473552Y-71810892D02*
X212521171Y-71906130D01*
X212521171Y-71906130D02*
X212521171Y-72429940D01*
X212521171Y-71906130D02*
X212568790Y-71810892D01*
X212568790Y-71810892D02*
X212664028Y-71763273D01*
X212664028Y-71763273D02*
X212806885Y-71763273D01*
X212806885Y-71763273D02*
X212902124Y-71810892D01*
X212902124Y-71810892D02*
X212949743Y-71906130D01*
X212949743Y-71906130D02*
X212949743Y-72429940D01*
D10*
X150402124Y-72625121D02*
X150402124Y-72538701D01*
X265402124Y-72625121D02*
X265402124Y-72538701D01*
X150402124Y-73125121D02*
X265402124Y-73125121D01*
X150402124Y-73125121D02*
X265402124Y-73125121D01*
X150402124Y-73125121D02*
X151528628Y-72538700D01*
X150402124Y-73125121D02*
X151528628Y-73711542D01*
X265402124Y-73125121D02*
X264275620Y-73711542D01*
X265402124Y-73125121D02*
X264275620Y-72538700D01*
D11*
X71878314Y-135429940D02*
X71306886Y-135429940D01*
X71592600Y-135429940D02*
X71592600Y-134429940D01*
X71592600Y-134429940D02*
X71497362Y-134572797D01*
X71497362Y-134572797D02*
X71402124Y-134668035D01*
X71402124Y-134668035D02*
X71306886Y-134715654D01*
X72830695Y-135429940D02*
X72259267Y-135429940D01*
X72544981Y-135429940D02*
X72544981Y-134429940D01*
X72544981Y-134429940D02*
X72449743Y-134572797D01*
X72449743Y-134572797D02*
X72354505Y-134668035D01*
X72354505Y-134668035D02*
X72259267Y-134715654D01*
X73735457Y-134429940D02*
X73259267Y-134429940D01*
X73259267Y-134429940D02*
X73211648Y-134906130D01*
X73211648Y-134906130D02*
X73259267Y-134858511D01*
X73259267Y-134858511D02*
X73354505Y-134810892D01*
X73354505Y-134810892D02*
X73592600Y-134810892D01*
X73592600Y-134810892D02*
X73687838Y-134858511D01*
X73687838Y-134858511D02*
X73735457Y-134906130D01*
X73735457Y-134906130D02*
X73783076Y-135001368D01*
X73783076Y-135001368D02*
X73783076Y-135239463D01*
X73783076Y-135239463D02*
X73735457Y-135334701D01*
X73735457Y-135334701D02*
X73687838Y-135382321D01*
X73687838Y-135382321D02*
X73592600Y-135429940D01*
X73592600Y-135429940D02*
X73354505Y-135429940D01*
X73354505Y-135429940D02*
X73259267Y-135382321D01*
X73259267Y-135382321D02*
X73211648Y-135334701D01*
X74211648Y-135334701D02*
X74259267Y-135382321D01*
X74259267Y-135382321D02*
X74211648Y-135429940D01*
X74211648Y-135429940D02*
X74164029Y-135382321D01*
X74164029Y-135382321D02*
X74211648Y-135334701D01*
X74211648Y-135334701D02*
X74211648Y-135429940D01*
X74878314Y-134429940D02*
X74973552Y-134429940D01*
X74973552Y-134429940D02*
X75068790Y-134477559D01*
X75068790Y-134477559D02*
X75116409Y-134525178D01*
X75116409Y-134525178D02*
X75164028Y-134620416D01*
X75164028Y-134620416D02*
X75211647Y-134810892D01*
X75211647Y-134810892D02*
X75211647Y-135048987D01*
X75211647Y-135048987D02*
X75164028Y-135239463D01*
X75164028Y-135239463D02*
X75116409Y-135334701D01*
X75116409Y-135334701D02*
X75068790Y-135382321D01*
X75068790Y-135382321D02*
X74973552Y-135429940D01*
X74973552Y-135429940D02*
X74878314Y-135429940D01*
X74878314Y-135429940D02*
X74783076Y-135382321D01*
X74783076Y-135382321D02*
X74735457Y-135334701D01*
X74735457Y-135334701D02*
X74687838Y-135239463D01*
X74687838Y-135239463D02*
X74640219Y-135048987D01*
X74640219Y-135048987D02*
X74640219Y-134810892D01*
X74640219Y-134810892D02*
X74687838Y-134620416D01*
X74687838Y-134620416D02*
X74735457Y-134525178D01*
X74735457Y-134525178D02*
X74783076Y-134477559D01*
X74783076Y-134477559D02*
X74878314Y-134429940D01*
X75830695Y-134429940D02*
X75925933Y-134429940D01*
X75925933Y-134429940D02*
X76021171Y-134477559D01*
X76021171Y-134477559D02*
X76068790Y-134525178D01*
X76068790Y-134525178D02*
X76116409Y-134620416D01*
X76116409Y-134620416D02*
X76164028Y-134810892D01*
X76164028Y-134810892D02*
X76164028Y-135048987D01*
X76164028Y-135048987D02*
X76116409Y-135239463D01*
X76116409Y-135239463D02*
X76068790Y-135334701D01*
X76068790Y-135334701D02*
X76021171Y-135382321D01*
X76021171Y-135382321D02*
X75925933Y-135429940D01*
X75925933Y-135429940D02*
X75830695Y-135429940D01*
X75830695Y-135429940D02*
X75735457Y-135382321D01*
X75735457Y-135382321D02*
X75687838Y-135334701D01*
X75687838Y-135334701D02*
X75640219Y-135239463D01*
X75640219Y-135239463D02*
X75592600Y-135048987D01*
X75592600Y-135048987D02*
X75592600Y-134810892D01*
X75592600Y-134810892D02*
X75640219Y-134620416D01*
X75640219Y-134620416D02*
X75687838Y-134525178D01*
X75687838Y-134525178D02*
X75735457Y-134477559D01*
X75735457Y-134477559D02*
X75830695Y-134429940D01*
X76783076Y-134429940D02*
X76878314Y-134429940D01*
X76878314Y-134429940D02*
X76973552Y-134477559D01*
X76973552Y-134477559D02*
X77021171Y-134525178D01*
X77021171Y-134525178D02*
X77068790Y-134620416D01*
X77068790Y-134620416D02*
X77116409Y-134810892D01*
X77116409Y-134810892D02*
X77116409Y-135048987D01*
X77116409Y-135048987D02*
X77068790Y-135239463D01*
X77068790Y-135239463D02*
X77021171Y-135334701D01*
X77021171Y-135334701D02*
X76973552Y-135382321D01*
X76973552Y-135382321D02*
X76878314Y-135429940D01*
X76878314Y-135429940D02*
X76783076Y-135429940D01*
X76783076Y-135429940D02*
X76687838Y-135382321D01*
X76687838Y-135382321D02*
X76640219Y-135334701D01*
X76640219Y-135334701D02*
X76592600Y-135239463D01*
X76592600Y-135239463D02*
X76544981Y-135048987D01*
X76544981Y-135048987D02*
X76544981Y-134810892D01*
X76544981Y-134810892D02*
X76592600Y-134620416D01*
X76592600Y-134620416D02*
X76640219Y-134525178D01*
X76640219Y-134525178D02*
X76687838Y-134477559D01*
X76687838Y-134477559D02*
X76783076Y-134429940D01*
X77735457Y-134429940D02*
X77830695Y-134429940D01*
X77830695Y-134429940D02*
X77925933Y-134477559D01*
X77925933Y-134477559D02*
X77973552Y-134525178D01*
X77973552Y-134525178D02*
X78021171Y-134620416D01*
X78021171Y-134620416D02*
X78068790Y-134810892D01*
X78068790Y-134810892D02*
X78068790Y-135048987D01*
X78068790Y-135048987D02*
X78021171Y-135239463D01*
X78021171Y-135239463D02*
X77973552Y-135334701D01*
X77973552Y-135334701D02*
X77925933Y-135382321D01*
X77925933Y-135382321D02*
X77830695Y-135429940D01*
X77830695Y-135429940D02*
X77735457Y-135429940D01*
X77735457Y-135429940D02*
X77640219Y-135382321D01*
X77640219Y-135382321D02*
X77592600Y-135334701D01*
X77592600Y-135334701D02*
X77544981Y-135239463D01*
X77544981Y-135239463D02*
X77497362Y-135048987D01*
X77497362Y-135048987D02*
X77497362Y-134810892D01*
X77497362Y-134810892D02*
X77544981Y-134620416D01*
X77544981Y-134620416D02*
X77592600Y-134525178D01*
X77592600Y-134525178D02*
X77640219Y-134477559D01*
X77640219Y-134477559D02*
X77735457Y-134429940D01*
X79259267Y-135429940D02*
X79259267Y-134763273D01*
X79259267Y-134858511D02*
X79306886Y-134810892D01*
X79306886Y-134810892D02*
X79402124Y-134763273D01*
X79402124Y-134763273D02*
X79544981Y-134763273D01*
X79544981Y-134763273D02*
X79640219Y-134810892D01*
X79640219Y-134810892D02*
X79687838Y-134906130D01*
X79687838Y-134906130D02*
X79687838Y-135429940D01*
X79687838Y-134906130D02*
X79735457Y-134810892D01*
X79735457Y-134810892D02*
X79830695Y-134763273D01*
X79830695Y-134763273D02*
X79973552Y-134763273D01*
X79973552Y-134763273D02*
X80068791Y-134810892D01*
X80068791Y-134810892D02*
X80116410Y-134906130D01*
X80116410Y-134906130D02*
X80116410Y-135429940D01*
X80592600Y-135429940D02*
X80592600Y-134763273D01*
X80592600Y-134858511D02*
X80640219Y-134810892D01*
X80640219Y-134810892D02*
X80735457Y-134763273D01*
X80735457Y-134763273D02*
X80878314Y-134763273D01*
X80878314Y-134763273D02*
X80973552Y-134810892D01*
X80973552Y-134810892D02*
X81021171Y-134906130D01*
X81021171Y-134906130D02*
X81021171Y-135429940D01*
X81021171Y-134906130D02*
X81068790Y-134810892D01*
X81068790Y-134810892D02*
X81164028Y-134763273D01*
X81164028Y-134763273D02*
X81306885Y-134763273D01*
X81306885Y-134763273D02*
X81402124Y-134810892D01*
X81402124Y-134810892D02*
X81449743Y-134906130D01*
X81449743Y-134906130D02*
X81449743Y-135429940D01*
D10*
X18902124Y-135625121D02*
X18902124Y-135538701D01*
X133902124Y-135625121D02*
X133902124Y-135538701D01*
X18902124Y-136125121D02*
X133902124Y-136125121D01*
X18902124Y-136125121D02*
X133902124Y-136125121D01*
X18902124Y-136125121D02*
X20028628Y-135538700D01*
X18902124Y-136125121D02*
X20028628Y-136711542D01*
X133902124Y-136125121D02*
X132775620Y-136711542D01*
X133902124Y-136125121D02*
X132775620Y-135538700D01*
D11*
X203878314Y-134929940D02*
X203306886Y-134929940D01*
X203592600Y-134929940D02*
X203592600Y-133929940D01*
X203592600Y-133929940D02*
X203497362Y-134072797D01*
X203497362Y-134072797D02*
X203402124Y-134168035D01*
X203402124Y-134168035D02*
X203306886Y-134215654D01*
X204830695Y-134929940D02*
X204259267Y-134929940D01*
X204544981Y-134929940D02*
X204544981Y-133929940D01*
X204544981Y-133929940D02*
X204449743Y-134072797D01*
X204449743Y-134072797D02*
X204354505Y-134168035D01*
X204354505Y-134168035D02*
X204259267Y-134215654D01*
X205735457Y-133929940D02*
X205259267Y-133929940D01*
X205259267Y-133929940D02*
X205211648Y-134406130D01*
X205211648Y-134406130D02*
X205259267Y-134358511D01*
X205259267Y-134358511D02*
X205354505Y-134310892D01*
X205354505Y-134310892D02*
X205592600Y-134310892D01*
X205592600Y-134310892D02*
X205687838Y-134358511D01*
X205687838Y-134358511D02*
X205735457Y-134406130D01*
X205735457Y-134406130D02*
X205783076Y-134501368D01*
X205783076Y-134501368D02*
X205783076Y-134739463D01*
X205783076Y-134739463D02*
X205735457Y-134834701D01*
X205735457Y-134834701D02*
X205687838Y-134882321D01*
X205687838Y-134882321D02*
X205592600Y-134929940D01*
X205592600Y-134929940D02*
X205354505Y-134929940D01*
X205354505Y-134929940D02*
X205259267Y-134882321D01*
X205259267Y-134882321D02*
X205211648Y-134834701D01*
X206211648Y-134834701D02*
X206259267Y-134882321D01*
X206259267Y-134882321D02*
X206211648Y-134929940D01*
X206211648Y-134929940D02*
X206164029Y-134882321D01*
X206164029Y-134882321D02*
X206211648Y-134834701D01*
X206211648Y-134834701D02*
X206211648Y-134929940D01*
X206878314Y-133929940D02*
X206973552Y-133929940D01*
X206973552Y-133929940D02*
X207068790Y-133977559D01*
X207068790Y-133977559D02*
X207116409Y-134025178D01*
X207116409Y-134025178D02*
X207164028Y-134120416D01*
X207164028Y-134120416D02*
X207211647Y-134310892D01*
X207211647Y-134310892D02*
X207211647Y-134548987D01*
X207211647Y-134548987D02*
X207164028Y-134739463D01*
X207164028Y-134739463D02*
X207116409Y-134834701D01*
X207116409Y-134834701D02*
X207068790Y-134882321D01*
X207068790Y-134882321D02*
X206973552Y-134929940D01*
X206973552Y-134929940D02*
X206878314Y-134929940D01*
X206878314Y-134929940D02*
X206783076Y-134882321D01*
X206783076Y-134882321D02*
X206735457Y-134834701D01*
X206735457Y-134834701D02*
X206687838Y-134739463D01*
X206687838Y-134739463D02*
X206640219Y-134548987D01*
X206640219Y-134548987D02*
X206640219Y-134310892D01*
X206640219Y-134310892D02*
X206687838Y-134120416D01*
X206687838Y-134120416D02*
X206735457Y-134025178D01*
X206735457Y-134025178D02*
X206783076Y-133977559D01*
X206783076Y-133977559D02*
X206878314Y-133929940D01*
X207830695Y-133929940D02*
X207925933Y-133929940D01*
X207925933Y-133929940D02*
X208021171Y-133977559D01*
X208021171Y-133977559D02*
X208068790Y-134025178D01*
X208068790Y-134025178D02*
X208116409Y-134120416D01*
X208116409Y-134120416D02*
X208164028Y-134310892D01*
X208164028Y-134310892D02*
X208164028Y-134548987D01*
X208164028Y-134548987D02*
X208116409Y-134739463D01*
X208116409Y-134739463D02*
X208068790Y-134834701D01*
X208068790Y-134834701D02*
X208021171Y-134882321D01*
X208021171Y-134882321D02*
X207925933Y-134929940D01*
X207925933Y-134929940D02*
X207830695Y-134929940D01*
X207830695Y-134929940D02*
X207735457Y-134882321D01*
X207735457Y-134882321D02*
X207687838Y-134834701D01*
X207687838Y-134834701D02*
X207640219Y-134739463D01*
X207640219Y-134739463D02*
X207592600Y-134548987D01*
X207592600Y-134548987D02*
X207592600Y-134310892D01*
X207592600Y-134310892D02*
X207640219Y-134120416D01*
X207640219Y-134120416D02*
X207687838Y-134025178D01*
X207687838Y-134025178D02*
X207735457Y-133977559D01*
X207735457Y-133977559D02*
X207830695Y-133929940D01*
X208783076Y-133929940D02*
X208878314Y-133929940D01*
X208878314Y-133929940D02*
X208973552Y-133977559D01*
X208973552Y-133977559D02*
X209021171Y-134025178D01*
X209021171Y-134025178D02*
X209068790Y-134120416D01*
X209068790Y-134120416D02*
X209116409Y-134310892D01*
X209116409Y-134310892D02*
X209116409Y-134548987D01*
X209116409Y-134548987D02*
X209068790Y-134739463D01*
X209068790Y-134739463D02*
X209021171Y-134834701D01*
X209021171Y-134834701D02*
X208973552Y-134882321D01*
X208973552Y-134882321D02*
X208878314Y-134929940D01*
X208878314Y-134929940D02*
X208783076Y-134929940D01*
X208783076Y-134929940D02*
X208687838Y-134882321D01*
X208687838Y-134882321D02*
X208640219Y-134834701D01*
X208640219Y-134834701D02*
X208592600Y-134739463D01*
X208592600Y-134739463D02*
X208544981Y-134548987D01*
X208544981Y-134548987D02*
X208544981Y-134310892D01*
X208544981Y-134310892D02*
X208592600Y-134120416D01*
X208592600Y-134120416D02*
X208640219Y-134025178D01*
X208640219Y-134025178D02*
X208687838Y-133977559D01*
X208687838Y-133977559D02*
X208783076Y-133929940D01*
X209735457Y-133929940D02*
X209830695Y-133929940D01*
X209830695Y-133929940D02*
X209925933Y-133977559D01*
X209925933Y-133977559D02*
X209973552Y-134025178D01*
X209973552Y-134025178D02*
X210021171Y-134120416D01*
X210021171Y-134120416D02*
X210068790Y-134310892D01*
X210068790Y-134310892D02*
X210068790Y-134548987D01*
X210068790Y-134548987D02*
X210021171Y-134739463D01*
X210021171Y-134739463D02*
X209973552Y-134834701D01*
X209973552Y-134834701D02*
X209925933Y-134882321D01*
X209925933Y-134882321D02*
X209830695Y-134929940D01*
X209830695Y-134929940D02*
X209735457Y-134929940D01*
X209735457Y-134929940D02*
X209640219Y-134882321D01*
X209640219Y-134882321D02*
X209592600Y-134834701D01*
X209592600Y-134834701D02*
X209544981Y-134739463D01*
X209544981Y-134739463D02*
X209497362Y-134548987D01*
X209497362Y-134548987D02*
X209497362Y-134310892D01*
X209497362Y-134310892D02*
X209544981Y-134120416D01*
X209544981Y-134120416D02*
X209592600Y-134025178D01*
X209592600Y-134025178D02*
X209640219Y-133977559D01*
X209640219Y-133977559D02*
X209735457Y-133929940D01*
X211259267Y-134929940D02*
X211259267Y-134263273D01*
X211259267Y-134358511D02*
X211306886Y-134310892D01*
X211306886Y-134310892D02*
X211402124Y-134263273D01*
X211402124Y-134263273D02*
X211544981Y-134263273D01*
X211544981Y-134263273D02*
X211640219Y-134310892D01*
X211640219Y-134310892D02*
X211687838Y-134406130D01*
X211687838Y-134406130D02*
X211687838Y-134929940D01*
X211687838Y-134406130D02*
X211735457Y-134310892D01*
X211735457Y-134310892D02*
X211830695Y-134263273D01*
X211830695Y-134263273D02*
X211973552Y-134263273D01*
X211973552Y-134263273D02*
X212068791Y-134310892D01*
X212068791Y-134310892D02*
X212116410Y-134406130D01*
X212116410Y-134406130D02*
X212116410Y-134929940D01*
X212592600Y-134929940D02*
X212592600Y-134263273D01*
X212592600Y-134358511D02*
X212640219Y-134310892D01*
X212640219Y-134310892D02*
X212735457Y-134263273D01*
X212735457Y-134263273D02*
X212878314Y-134263273D01*
X212878314Y-134263273D02*
X212973552Y-134310892D01*
X212973552Y-134310892D02*
X213021171Y-134406130D01*
X213021171Y-134406130D02*
X213021171Y-134929940D01*
X213021171Y-134406130D02*
X213068790Y-134310892D01*
X213068790Y-134310892D02*
X213164028Y-134263273D01*
X213164028Y-134263273D02*
X213306885Y-134263273D01*
X213306885Y-134263273D02*
X213402124Y-134310892D01*
X213402124Y-134310892D02*
X213449743Y-134406130D01*
X213449743Y-134406130D02*
X213449743Y-134929940D01*
D10*
X150902124Y-135125121D02*
X150902124Y-135038701D01*
X265902124Y-135125121D02*
X265902124Y-135038701D01*
X150902124Y-135625121D02*
X265902124Y-135625121D01*
X150902124Y-135625121D02*
X265902124Y-135625121D01*
X150902124Y-135625121D02*
X152028628Y-135038700D01*
X150902124Y-135625121D02*
X152028628Y-136211542D01*
X265902124Y-135625121D02*
X264775620Y-136211542D01*
X265902124Y-135625121D02*
X264775620Y-135038700D01*
D11*
X72378314Y-199429940D02*
X71806886Y-199429940D01*
X72092600Y-199429940D02*
X72092600Y-198429940D01*
X72092600Y-198429940D02*
X71997362Y-198572797D01*
X71997362Y-198572797D02*
X71902124Y-198668035D01*
X71902124Y-198668035D02*
X71806886Y-198715654D01*
X73330695Y-199429940D02*
X72759267Y-199429940D01*
X73044981Y-199429940D02*
X73044981Y-198429940D01*
X73044981Y-198429940D02*
X72949743Y-198572797D01*
X72949743Y-198572797D02*
X72854505Y-198668035D01*
X72854505Y-198668035D02*
X72759267Y-198715654D01*
X74235457Y-198429940D02*
X73759267Y-198429940D01*
X73759267Y-198429940D02*
X73711648Y-198906130D01*
X73711648Y-198906130D02*
X73759267Y-198858511D01*
X73759267Y-198858511D02*
X73854505Y-198810892D01*
X73854505Y-198810892D02*
X74092600Y-198810892D01*
X74092600Y-198810892D02*
X74187838Y-198858511D01*
X74187838Y-198858511D02*
X74235457Y-198906130D01*
X74235457Y-198906130D02*
X74283076Y-199001368D01*
X74283076Y-199001368D02*
X74283076Y-199239463D01*
X74283076Y-199239463D02*
X74235457Y-199334701D01*
X74235457Y-199334701D02*
X74187838Y-199382321D01*
X74187838Y-199382321D02*
X74092600Y-199429940D01*
X74092600Y-199429940D02*
X73854505Y-199429940D01*
X73854505Y-199429940D02*
X73759267Y-199382321D01*
X73759267Y-199382321D02*
X73711648Y-199334701D01*
X74711648Y-199334701D02*
X74759267Y-199382321D01*
X74759267Y-199382321D02*
X74711648Y-199429940D01*
X74711648Y-199429940D02*
X74664029Y-199382321D01*
X74664029Y-199382321D02*
X74711648Y-199334701D01*
X74711648Y-199334701D02*
X74711648Y-199429940D01*
X75378314Y-198429940D02*
X75473552Y-198429940D01*
X75473552Y-198429940D02*
X75568790Y-198477559D01*
X75568790Y-198477559D02*
X75616409Y-198525178D01*
X75616409Y-198525178D02*
X75664028Y-198620416D01*
X75664028Y-198620416D02*
X75711647Y-198810892D01*
X75711647Y-198810892D02*
X75711647Y-199048987D01*
X75711647Y-199048987D02*
X75664028Y-199239463D01*
X75664028Y-199239463D02*
X75616409Y-199334701D01*
X75616409Y-199334701D02*
X75568790Y-199382321D01*
X75568790Y-199382321D02*
X75473552Y-199429940D01*
X75473552Y-199429940D02*
X75378314Y-199429940D01*
X75378314Y-199429940D02*
X75283076Y-199382321D01*
X75283076Y-199382321D02*
X75235457Y-199334701D01*
X75235457Y-199334701D02*
X75187838Y-199239463D01*
X75187838Y-199239463D02*
X75140219Y-199048987D01*
X75140219Y-199048987D02*
X75140219Y-198810892D01*
X75140219Y-198810892D02*
X75187838Y-198620416D01*
X75187838Y-198620416D02*
X75235457Y-198525178D01*
X75235457Y-198525178D02*
X75283076Y-198477559D01*
X75283076Y-198477559D02*
X75378314Y-198429940D01*
X76330695Y-198429940D02*
X76425933Y-198429940D01*
X76425933Y-198429940D02*
X76521171Y-198477559D01*
X76521171Y-198477559D02*
X76568790Y-198525178D01*
X76568790Y-198525178D02*
X76616409Y-198620416D01*
X76616409Y-198620416D02*
X76664028Y-198810892D01*
X76664028Y-198810892D02*
X76664028Y-199048987D01*
X76664028Y-199048987D02*
X76616409Y-199239463D01*
X76616409Y-199239463D02*
X76568790Y-199334701D01*
X76568790Y-199334701D02*
X76521171Y-199382321D01*
X76521171Y-199382321D02*
X76425933Y-199429940D01*
X76425933Y-199429940D02*
X76330695Y-199429940D01*
X76330695Y-199429940D02*
X76235457Y-199382321D01*
X76235457Y-199382321D02*
X76187838Y-199334701D01*
X76187838Y-199334701D02*
X76140219Y-199239463D01*
X76140219Y-199239463D02*
X76092600Y-199048987D01*
X76092600Y-199048987D02*
X76092600Y-198810892D01*
X76092600Y-198810892D02*
X76140219Y-198620416D01*
X76140219Y-198620416D02*
X76187838Y-198525178D01*
X76187838Y-198525178D02*
X76235457Y-198477559D01*
X76235457Y-198477559D02*
X76330695Y-198429940D01*
X77283076Y-198429940D02*
X77378314Y-198429940D01*
X77378314Y-198429940D02*
X77473552Y-198477559D01*
X77473552Y-198477559D02*
X77521171Y-198525178D01*
X77521171Y-198525178D02*
X77568790Y-198620416D01*
X77568790Y-198620416D02*
X77616409Y-198810892D01*
X77616409Y-198810892D02*
X77616409Y-199048987D01*
X77616409Y-199048987D02*
X77568790Y-199239463D01*
X77568790Y-199239463D02*
X77521171Y-199334701D01*
X77521171Y-199334701D02*
X77473552Y-199382321D01*
X77473552Y-199382321D02*
X77378314Y-199429940D01*
X77378314Y-199429940D02*
X77283076Y-199429940D01*
X77283076Y-199429940D02*
X77187838Y-199382321D01*
X77187838Y-199382321D02*
X77140219Y-199334701D01*
X77140219Y-199334701D02*
X77092600Y-199239463D01*
X77092600Y-199239463D02*
X77044981Y-199048987D01*
X77044981Y-199048987D02*
X77044981Y-198810892D01*
X77044981Y-198810892D02*
X77092600Y-198620416D01*
X77092600Y-198620416D02*
X77140219Y-198525178D01*
X77140219Y-198525178D02*
X77187838Y-198477559D01*
X77187838Y-198477559D02*
X77283076Y-198429940D01*
X78235457Y-198429940D02*
X78330695Y-198429940D01*
X78330695Y-198429940D02*
X78425933Y-198477559D01*
X78425933Y-198477559D02*
X78473552Y-198525178D01*
X78473552Y-198525178D02*
X78521171Y-198620416D01*
X78521171Y-198620416D02*
X78568790Y-198810892D01*
X78568790Y-198810892D02*
X78568790Y-199048987D01*
X78568790Y-199048987D02*
X78521171Y-199239463D01*
X78521171Y-199239463D02*
X78473552Y-199334701D01*
X78473552Y-199334701D02*
X78425933Y-199382321D01*
X78425933Y-199382321D02*
X78330695Y-199429940D01*
X78330695Y-199429940D02*
X78235457Y-199429940D01*
X78235457Y-199429940D02*
X78140219Y-199382321D01*
X78140219Y-199382321D02*
X78092600Y-199334701D01*
X78092600Y-199334701D02*
X78044981Y-199239463D01*
X78044981Y-199239463D02*
X77997362Y-199048987D01*
X77997362Y-199048987D02*
X77997362Y-198810892D01*
X77997362Y-198810892D02*
X78044981Y-198620416D01*
X78044981Y-198620416D02*
X78092600Y-198525178D01*
X78092600Y-198525178D02*
X78140219Y-198477559D01*
X78140219Y-198477559D02*
X78235457Y-198429940D01*
X79759267Y-199429940D02*
X79759267Y-198763273D01*
X79759267Y-198858511D02*
X79806886Y-198810892D01*
X79806886Y-198810892D02*
X79902124Y-198763273D01*
X79902124Y-198763273D02*
X80044981Y-198763273D01*
X80044981Y-198763273D02*
X80140219Y-198810892D01*
X80140219Y-198810892D02*
X80187838Y-198906130D01*
X80187838Y-198906130D02*
X80187838Y-199429940D01*
X80187838Y-198906130D02*
X80235457Y-198810892D01*
X80235457Y-198810892D02*
X80330695Y-198763273D01*
X80330695Y-198763273D02*
X80473552Y-198763273D01*
X80473552Y-198763273D02*
X80568791Y-198810892D01*
X80568791Y-198810892D02*
X80616410Y-198906130D01*
X80616410Y-198906130D02*
X80616410Y-199429940D01*
X81092600Y-199429940D02*
X81092600Y-198763273D01*
X81092600Y-198858511D02*
X81140219Y-198810892D01*
X81140219Y-198810892D02*
X81235457Y-198763273D01*
X81235457Y-198763273D02*
X81378314Y-198763273D01*
X81378314Y-198763273D02*
X81473552Y-198810892D01*
X81473552Y-198810892D02*
X81521171Y-198906130D01*
X81521171Y-198906130D02*
X81521171Y-199429940D01*
X81521171Y-198906130D02*
X81568790Y-198810892D01*
X81568790Y-198810892D02*
X81664028Y-198763273D01*
X81664028Y-198763273D02*
X81806885Y-198763273D01*
X81806885Y-198763273D02*
X81902124Y-198810892D01*
X81902124Y-198810892D02*
X81949743Y-198906130D01*
X81949743Y-198906130D02*
X81949743Y-199429940D01*
D10*
X19402124Y-199625121D02*
X19402124Y-199538701D01*
X134402124Y-199625121D02*
X134402124Y-199538701D01*
X19402124Y-200125121D02*
X134402124Y-200125121D01*
X19402124Y-200125121D02*
X134402124Y-200125121D01*
X19402124Y-200125121D02*
X20528628Y-199538700D01*
X19402124Y-200125121D02*
X20528628Y-200711542D01*
X134402124Y-200125121D02*
X133275620Y-200711542D01*
X134402124Y-200125121D02*
X133275620Y-199538700D01*
M02*
