%TF.GenerationSoftware,KiCad,Pcbnew,8.0.5-8.0.5-0~ubuntu24.04.1*%
%TF.CreationDate,2024-09-29T15:16:05-03:00*%
%TF.ProjectId,MXR Distortion,4d585220-4469-4737-946f-7274696f6e2e,rev?*%
%TF.SameCoordinates,Original*%
%TF.FileFunction,Soldermask,Top*%
%TF.FilePolarity,Negative*%
%FSLAX46Y46*%
G04 Gerber Fmt 4.6, Leading zero omitted, Abs format (unit mm)*
G04 Created by KiCad (PCBNEW 8.0.5-8.0.5-0~ubuntu24.04.1) date 2024-09-29 15:16:05*
%MOMM*%
%LPD*%
G01*
G04 APERTURE LIST*
G04 Aperture macros list*
%AMRoundRect*
0 Rectangle with rounded corners*
0 $1 Rounding radius*
0 $2 $3 $4 $5 $6 $7 $8 $9 X,Y pos of 4 corners*
0 Add a 4 corners polygon primitive as box body*
4,1,4,$2,$3,$4,$5,$6,$7,$8,$9,$2,$3,0*
0 Add four circle primitives for the rounded corners*
1,1,$1+$1,$2,$3*
1,1,$1+$1,$4,$5*
1,1,$1+$1,$6,$7*
1,1,$1+$1,$8,$9*
0 Add four rect primitives between the rounded corners*
20,1,$1+$1,$2,$3,$4,$5,0*
20,1,$1+$1,$4,$5,$6,$7,0*
20,1,$1+$1,$6,$7,$8,$9,0*
20,1,$1+$1,$8,$9,$2,$3,0*%
G04 Aperture macros list end*
%ADD10C,1.600000*%
%ADD11O,1.600000X1.600000*%
%ADD12C,3.000000*%
%ADD13R,3.000000X3.000000*%
%ADD14R,1.600000X1.600000*%
%ADD15R,3.500000X3.500000*%
%ADD16RoundRect,0.750000X1.000000X-0.750000X1.000000X0.750000X-1.000000X0.750000X-1.000000X-0.750000X0*%
%ADD17RoundRect,0.875000X0.875000X-0.875000X0.875000X0.875000X-0.875000X0.875000X-0.875000X-0.875000X0*%
G04 APERTURE END LIST*
D10*
%TO.C,R6*%
X207380000Y-170500000D03*
D11*
X215000000Y-170500000D03*
%TD*%
D12*
%TO.C,J1*%
X28800000Y-110500000D03*
X28800000Y-94270000D03*
X41500000Y-110500000D03*
X41500000Y-94270000D03*
%TD*%
D10*
%TO.C,R7*%
X196000000Y-107000000D03*
D11*
X203620000Y-107000000D03*
%TD*%
D10*
%TO.C,C1*%
X51597876Y-43624879D03*
X51597876Y-41124879D03*
%TD*%
D13*
%TO.C,RV2*%
X53500000Y-119950000D03*
D12*
X58500000Y-119950000D03*
X63500000Y-119950000D03*
%TD*%
D14*
%TO.C,D1*%
X91000000Y-100500000D03*
D11*
X91000000Y-92880000D03*
%TD*%
D15*
%TO.C,J3*%
X207300000Y-54000000D03*
D16*
X207300000Y-60000000D03*
D17*
X212000000Y-57000000D03*
%TD*%
D10*
%TO.C,C3*%
X59000000Y-170500000D03*
X59000000Y-168000000D03*
%TD*%
D13*
%TO.C,RV2*%
X186000000Y-182950000D03*
D12*
X191000000Y-182950000D03*
X196000000Y-182950000D03*
%TD*%
%TO.C,J2*%
X256765000Y-93885000D03*
X256765000Y-110115000D03*
X244065000Y-93885000D03*
X244065000Y-110115000D03*
%TD*%
D10*
%TO.C,R1*%
X184690000Y-27000000D03*
D11*
X192310000Y-27000000D03*
%TD*%
D14*
%TO.C,C4*%
X217000000Y-22500000D03*
D10*
X215000000Y-22500000D03*
%TD*%
D12*
%TO.C,J2*%
X257265000Y-157385000D03*
X257265000Y-173615000D03*
X244565000Y-157385000D03*
X244565000Y-173615000D03*
%TD*%
D10*
%TO.C,R4*%
X204190000Y-83500000D03*
D11*
X211810000Y-83500000D03*
%TD*%
D10*
%TO.C,C2*%
X52500000Y-158000000D03*
X52500000Y-163000000D03*
%TD*%
%TO.C,R3*%
X66000000Y-175000000D03*
D11*
X58380000Y-175000000D03*
%TD*%
D13*
%TO.C,RV1*%
X221500000Y-56950000D03*
D12*
X226500000Y-56950000D03*
X231500000Y-56950000D03*
%TD*%
%TO.C,J1*%
X160300000Y-47500000D03*
X160300000Y-31270000D03*
X173000000Y-47500000D03*
X173000000Y-31270000D03*
%TD*%
D10*
%TO.C,R4*%
X71787876Y-20874879D03*
D11*
X79407876Y-20874879D03*
%TD*%
D10*
%TO.C,R2*%
X194000000Y-100310000D03*
D11*
X194000000Y-92690000D03*
%TD*%
D14*
%TO.C,U1*%
X201380000Y-91880000D03*
D11*
X201380000Y-94420000D03*
X201380000Y-96960000D03*
X201380000Y-99500000D03*
X209000000Y-99500000D03*
X209000000Y-96960000D03*
X209000000Y-94420000D03*
X209000000Y-91880000D03*
%TD*%
D14*
%TO.C,U1*%
X69380000Y-92380000D03*
D11*
X69380000Y-94920000D03*
X69380000Y-97460000D03*
X69380000Y-100000000D03*
X77000000Y-100000000D03*
X77000000Y-97460000D03*
X77000000Y-94920000D03*
X77000000Y-92380000D03*
%TD*%
D10*
%TO.C,R3*%
X197000000Y-48000000D03*
D11*
X189380000Y-48000000D03*
%TD*%
D14*
%TO.C,C6*%
X219500000Y-44500000D03*
D10*
X221500000Y-44500000D03*
%TD*%
%TO.C,C5*%
X101597876Y-36624879D03*
X101597876Y-34124879D03*
%TD*%
D14*
%TO.C,D1*%
X222500000Y-37500000D03*
D11*
X222500000Y-29880000D03*
%TD*%
D10*
%TO.C,R3*%
X197500000Y-110500000D03*
D11*
X189880000Y-110500000D03*
%TD*%
D10*
%TO.C,C1*%
X52000000Y-106750000D03*
X52000000Y-104250000D03*
%TD*%
%TO.C,R6*%
X75380000Y-171500000D03*
D11*
X83000000Y-171500000D03*
%TD*%
D10*
%TO.C,C1*%
X183500000Y-43750000D03*
X183500000Y-41250000D03*
%TD*%
%TO.C,C2*%
X184500000Y-157000000D03*
X184500000Y-162000000D03*
%TD*%
D12*
%TO.C,J1*%
X160800000Y-110000000D03*
X160800000Y-93770000D03*
X173500000Y-110000000D03*
X173500000Y-93770000D03*
%TD*%
D10*
%TO.C,R5*%
X85000000Y-156690000D03*
D11*
X85000000Y-164310000D03*
%TD*%
D13*
%TO.C,RV1*%
X89597876Y-56824879D03*
D12*
X94597876Y-56824879D03*
X99597876Y-56824879D03*
%TD*%
D10*
%TO.C,C1*%
X184500000Y-169750000D03*
X184500000Y-167250000D03*
%TD*%
%TO.C,C2*%
X183500000Y-31000000D03*
X183500000Y-36000000D03*
%TD*%
%TO.C,R1*%
X53690000Y-154000000D03*
D11*
X61310000Y-154000000D03*
%TD*%
D14*
%TO.C,D2*%
X97500000Y-156690000D03*
D11*
X97500000Y-164310000D03*
%TD*%
D14*
%TO.C,U1*%
X201880000Y-155380000D03*
D11*
X201880000Y-157920000D03*
X201880000Y-160460000D03*
X201880000Y-163000000D03*
X209500000Y-163000000D03*
X209500000Y-160460000D03*
X209500000Y-157920000D03*
X209500000Y-155380000D03*
%TD*%
D15*
%TO.C,J3*%
X76300000Y-181000000D03*
D16*
X76300000Y-187000000D03*
D17*
X81000000Y-184000000D03*
%TD*%
D10*
%TO.C,R3*%
X65500000Y-111000000D03*
D11*
X57880000Y-111000000D03*
%TD*%
D14*
%TO.C,C4*%
X85500000Y-85500000D03*
D10*
X83500000Y-85500000D03*
%TD*%
D14*
%TO.C,D2*%
X228500000Y-29690000D03*
D11*
X228500000Y-37310000D03*
%TD*%
D14*
%TO.C,D2*%
X229500000Y-155690000D03*
D11*
X229500000Y-163310000D03*
%TD*%
D10*
%TO.C,C5*%
X234500000Y-162750000D03*
X234500000Y-160250000D03*
%TD*%
%TO.C,R3*%
X198000000Y-174000000D03*
D11*
X190380000Y-174000000D03*
%TD*%
D13*
%TO.C,RV1*%
X222000000Y-119450000D03*
D12*
X227000000Y-119450000D03*
X232000000Y-119450000D03*
%TD*%
D13*
%TO.C,RV2*%
X54000000Y-183950000D03*
D12*
X59000000Y-183950000D03*
X64000000Y-183950000D03*
%TD*%
D10*
%TO.C,C1*%
X52500000Y-170750000D03*
X52500000Y-168250000D03*
%TD*%
D14*
%TO.C,D1*%
X90597876Y-37374879D03*
D11*
X90597876Y-29754879D03*
%TD*%
D12*
%TO.C,J2*%
X124362876Y-31259879D03*
X124362876Y-47489879D03*
X111662876Y-31259879D03*
X111662876Y-47489879D03*
%TD*%
D14*
%TO.C,C4*%
X85097876Y-22374879D03*
D10*
X83097876Y-22374879D03*
%TD*%
D14*
%TO.C,D2*%
X97000000Y-92690000D03*
D11*
X97000000Y-100310000D03*
%TD*%
D10*
%TO.C,R7*%
X64500000Y-171500000D03*
D11*
X72120000Y-171500000D03*
%TD*%
D14*
%TO.C,C6*%
X88000000Y-107500000D03*
D10*
X90000000Y-107500000D03*
%TD*%
%TO.C,R4*%
X72690000Y-148000000D03*
D11*
X80310000Y-148000000D03*
%TD*%
D10*
%TO.C,R1*%
X185190000Y-89500000D03*
D11*
X192810000Y-89500000D03*
%TD*%
D10*
%TO.C,R6*%
X74880000Y-107500000D03*
D11*
X82500000Y-107500000D03*
%TD*%
D12*
%TO.C,J1*%
X161300000Y-173500000D03*
X161300000Y-157270000D03*
X174000000Y-173500000D03*
X174000000Y-157270000D03*
%TD*%
D14*
%TO.C,U1*%
X200880000Y-29380000D03*
D11*
X200880000Y-31920000D03*
X200880000Y-34460000D03*
X200880000Y-37000000D03*
X208500000Y-37000000D03*
X208500000Y-34460000D03*
X208500000Y-31920000D03*
X208500000Y-29380000D03*
%TD*%
D14*
%TO.C,C4*%
X218000000Y-148500000D03*
D10*
X216000000Y-148500000D03*
%TD*%
%TO.C,C3*%
X58097876Y-43374879D03*
X58097876Y-40874879D03*
%TD*%
%TO.C,C2*%
X51597876Y-30874879D03*
X51597876Y-35874879D03*
%TD*%
%TO.C,R1*%
X53190000Y-90000000D03*
D11*
X60810000Y-90000000D03*
%TD*%
D10*
%TO.C,R5*%
X216500000Y-92190000D03*
D11*
X216500000Y-99810000D03*
%TD*%
D10*
%TO.C,R4*%
X203690000Y-21000000D03*
D11*
X211310000Y-21000000D03*
%TD*%
D10*
%TO.C,C5*%
X102000000Y-99750000D03*
X102000000Y-97250000D03*
%TD*%
D14*
%TO.C,D2*%
X96597876Y-29564879D03*
D11*
X96597876Y-37184879D03*
%TD*%
D10*
%TO.C,R1*%
X185690000Y-153000000D03*
D11*
X193310000Y-153000000D03*
%TD*%
D12*
%TO.C,J2*%
X125265000Y-158385000D03*
X125265000Y-174615000D03*
X112565000Y-158385000D03*
X112565000Y-174615000D03*
%TD*%
D14*
%TO.C,C6*%
X220000000Y-107000000D03*
D10*
X222000000Y-107000000D03*
%TD*%
%TO.C,R5*%
X84097876Y-29564879D03*
D11*
X84097876Y-37184879D03*
%TD*%
D10*
%TO.C,C5*%
X234000000Y-99250000D03*
X234000000Y-96750000D03*
%TD*%
D12*
%TO.C,J2*%
X124765000Y-94385000D03*
X124765000Y-110615000D03*
X112065000Y-94385000D03*
X112065000Y-110615000D03*
%TD*%
D10*
%TO.C,C3*%
X191000000Y-169500000D03*
X191000000Y-167000000D03*
%TD*%
%TO.C,R2*%
X62500000Y-164810000D03*
D11*
X62500000Y-157190000D03*
%TD*%
D14*
%TO.C,D1*%
X91500000Y-164500000D03*
D11*
X91500000Y-156880000D03*
%TD*%
D14*
%TO.C,C6*%
X220500000Y-170500000D03*
D10*
X222500000Y-170500000D03*
%TD*%
%TO.C,R2*%
X194500000Y-163810000D03*
D11*
X194500000Y-156190000D03*
%TD*%
D14*
%TO.C,D1*%
X223500000Y-163500000D03*
D11*
X223500000Y-155880000D03*
%TD*%
D10*
%TO.C,R7*%
X195500000Y-44500000D03*
D11*
X203120000Y-44500000D03*
%TD*%
D10*
%TO.C,C3*%
X190000000Y-43500000D03*
X190000000Y-41000000D03*
%TD*%
%TO.C,C3*%
X190500000Y-106000000D03*
X190500000Y-103500000D03*
%TD*%
D13*
%TO.C,RV1*%
X222500000Y-182950000D03*
D12*
X227500000Y-182950000D03*
X232500000Y-182950000D03*
%TD*%
D10*
%TO.C,R1*%
X52787876Y-26874879D03*
D11*
X60407876Y-26874879D03*
%TD*%
D10*
%TO.C,R7*%
X196500000Y-170500000D03*
D11*
X204120000Y-170500000D03*
%TD*%
D10*
%TO.C,C1*%
X184000000Y-106250000D03*
X184000000Y-103750000D03*
%TD*%
%TO.C,R4*%
X72190000Y-84000000D03*
D11*
X79810000Y-84000000D03*
%TD*%
D14*
%TO.C,C4*%
X217500000Y-85000000D03*
D10*
X215500000Y-85000000D03*
%TD*%
D14*
%TO.C,U1*%
X69880000Y-156380000D03*
D11*
X69880000Y-158920000D03*
X69880000Y-161460000D03*
X69880000Y-164000000D03*
X77500000Y-164000000D03*
X77500000Y-161460000D03*
X77500000Y-158920000D03*
X77500000Y-156380000D03*
%TD*%
D14*
%TO.C,C4*%
X86000000Y-149500000D03*
D10*
X84000000Y-149500000D03*
%TD*%
D12*
%TO.C,J2*%
X256265000Y-31385000D03*
X256265000Y-47615000D03*
X243565000Y-31385000D03*
X243565000Y-47615000D03*
%TD*%
D10*
%TO.C,R3*%
X65097876Y-47874879D03*
D11*
X57477876Y-47874879D03*
%TD*%
D10*
%TO.C,C3*%
X58500000Y-106500000D03*
X58500000Y-104000000D03*
%TD*%
%TO.C,R6*%
X206880000Y-107000000D03*
D11*
X214500000Y-107000000D03*
%TD*%
D14*
%TO.C,C6*%
X88500000Y-171500000D03*
D10*
X90500000Y-171500000D03*
%TD*%
%TO.C,R6*%
X74477876Y-44374879D03*
D11*
X82097876Y-44374879D03*
%TD*%
D10*
%TO.C,R2*%
X62000000Y-100810000D03*
D11*
X62000000Y-93190000D03*
%TD*%
D13*
%TO.C,RV2*%
X53097876Y-56824879D03*
D12*
X58097876Y-56824879D03*
X63097876Y-56824879D03*
%TD*%
D10*
%TO.C,R4*%
X204690000Y-147000000D03*
D11*
X212310000Y-147000000D03*
%TD*%
D15*
%TO.C,J3*%
X75397876Y-53874879D03*
D16*
X75397876Y-59874879D03*
D17*
X80097876Y-56874879D03*
%TD*%
D10*
%TO.C,R5*%
X84500000Y-92690000D03*
D11*
X84500000Y-100310000D03*
%TD*%
D10*
%TO.C,C5*%
X233500000Y-36750000D03*
X233500000Y-34250000D03*
%TD*%
%TO.C,R5*%
X216000000Y-29690000D03*
D11*
X216000000Y-37310000D03*
%TD*%
D13*
%TO.C,RV1*%
X90000000Y-119950000D03*
D12*
X95000000Y-119950000D03*
X100000000Y-119950000D03*
%TD*%
D10*
%TO.C,R2*%
X61597876Y-37684879D03*
D11*
X61597876Y-30064879D03*
%TD*%
D13*
%TO.C,RV2*%
X185500000Y-119450000D03*
D12*
X190500000Y-119450000D03*
X195500000Y-119450000D03*
%TD*%
D10*
%TO.C,R5*%
X217000000Y-155690000D03*
D11*
X217000000Y-163310000D03*
%TD*%
D15*
%TO.C,J3*%
X208300000Y-180000000D03*
D16*
X208300000Y-186000000D03*
D17*
X213000000Y-183000000D03*
%TD*%
D14*
%TO.C,D1*%
X223000000Y-100000000D03*
D11*
X223000000Y-92380000D03*
%TD*%
D14*
%TO.C,C6*%
X87597876Y-44374879D03*
D10*
X89597876Y-44374879D03*
%TD*%
D13*
%TO.C,RV1*%
X90500000Y-183950000D03*
D12*
X95500000Y-183950000D03*
X100500000Y-183950000D03*
%TD*%
%TO.C,J1*%
X28397876Y-47374879D03*
X28397876Y-31144879D03*
X41097876Y-47374879D03*
X41097876Y-31144879D03*
%TD*%
D14*
%TO.C,U1*%
X68977876Y-29254879D03*
D11*
X68977876Y-31794879D03*
X68977876Y-34334879D03*
X68977876Y-36874879D03*
X76597876Y-36874879D03*
X76597876Y-34334879D03*
X76597876Y-31794879D03*
X76597876Y-29254879D03*
%TD*%
D15*
%TO.C,J3*%
X75800000Y-117000000D03*
D16*
X75800000Y-123000000D03*
D17*
X80500000Y-120000000D03*
%TD*%
D10*
%TO.C,R7*%
X64000000Y-107500000D03*
D11*
X71620000Y-107500000D03*
%TD*%
D10*
%TO.C,R6*%
X206380000Y-44500000D03*
D11*
X214000000Y-44500000D03*
%TD*%
D10*
%TO.C,C2*%
X184000000Y-93500000D03*
X184000000Y-98500000D03*
%TD*%
%TO.C,R2*%
X193500000Y-37810000D03*
D11*
X193500000Y-30190000D03*
%TD*%
D10*
%TO.C,R7*%
X63597876Y-44374879D03*
D11*
X71217876Y-44374879D03*
%TD*%
D15*
%TO.C,J3*%
X207800000Y-116500000D03*
D16*
X207800000Y-122500000D03*
D17*
X212500000Y-119500000D03*
%TD*%
D10*
%TO.C,C2*%
X52000000Y-94000000D03*
X52000000Y-99000000D03*
%TD*%
%TO.C,C5*%
X102500000Y-163750000D03*
X102500000Y-161250000D03*
%TD*%
D14*
%TO.C,D2*%
X229000000Y-92190000D03*
D11*
X229000000Y-99810000D03*
%TD*%
D12*
%TO.C,J1*%
X29300000Y-174500000D03*
X29300000Y-158270000D03*
X42000000Y-174500000D03*
X42000000Y-158270000D03*
%TD*%
D13*
%TO.C,RV2*%
X185000000Y-56950000D03*
D12*
X190000000Y-56950000D03*
X195000000Y-56950000D03*
%TD*%
M02*
