<?xml version="1.0" encoding="UTF-8" standalone="no"?>
<!-- Created with Inkscape (http://www.inkscape.org/) -->

<svg
   width="85mm"
   height="118mm"
   viewBox="0 0 85 118"
   version="1.1"
   id="svg1"
   inkscape:version="1.4 (1:1.4+202410161351+e7c3feb100)"
   sodipodi:docname="Big Muff Pi.svg"
   xmlns:inkscape="http://www.inkscape.org/namespaces/inkscape"
   xmlns:sodipodi="http://sodipodi.sourceforge.net/DTD/sodipodi-0.dtd"
   xmlns="http://www.w3.org/2000/svg"
   xmlns:svg="http://www.w3.org/2000/svg">
  <sodipodi:namedview
     id="namedview1"
     pagecolor="#ffffff"
     bordercolor="#000000"
     borderopacity="0.25"
     inkscape:showpageshadow="2"
     inkscape:pageopacity="0.0"
     inkscape:pagecheckerboard="0"
     inkscape:deskcolor="#d1d1d1"
     inkscape:document-units="mm"
     inkscape:zoom="1.7338419"
     inkscape:cx="188.59852"
     inkscape:cy="230.41317"
     inkscape:window-width="1920"
     inkscape:window-height="1043"
     inkscape:window-x="0"
     inkscape:window-y="0"
     inkscape:window-maximized="1"
     inkscape:current-layer="layer1"
     showguides="true"
     inkscape:lockguides="false"
     showgrid="true">
    <inkscape:grid
       id="grid6"
       units="mm"
       originx="0"
       originy="0"
       spacingx="1"
       spacingy="0.99999998"
       empcolor="#0099e5"
       empopacity="0.30196078"
       color="#0099e5"
       opacity="0.14901961"
       empspacing="5"
       enabled="true"
       visible="true" />
  </sodipodi:namedview>
  <defs
     id="defs1">
    <linearGradient
       id="swatch2"
       inkscape:swatch="solid">
      <stop
         style="stop-color:#ffffff;stop-opacity:1;"
         offset="0"
         id="stop2" />
    </linearGradient>
    <linearGradient
       id="swatch1"
       inkscape:swatch="solid">
      <stop
         style="stop-color:#ffffff;stop-opacity:1;"
         offset="0"
         id="stop1" />
    </linearGradient>
  </defs>
  <g
     inkscape:label="Contour"
     inkscape:groupmode="layer"
     id="layer1">
    <rect
       style="font-variation-settings:normal;opacity:1;vector-effect:none;fill:#ffffff;fill-opacity:1;fill-rule:evenodd;stroke:#000000;stroke-width:0.264583;stroke-linecap:butt;stroke-linejoin:miter;stroke-miterlimit:4;stroke-dasharray:none;stroke-dashoffset:0;stroke-opacity:1;-inkscape-stroke:none;stop-color:#000000;stop-opacity:1"
       id="rect5"
       width="85"
       height="118"
       x="2.220446e-16"
       y="0"
       ry="0"
       inkscape:label="rect1" />
    <path
       style="fill:#ffffff;stroke:#000000;stroke-width:0.264583"
       id="path7"
       sodipodi:type="arc"
       sodipodi:cx="42.632305"
       sodipodi:cy="103.13232"
       sodipodi:rx="5.6750002"
       sodipodi:ry="5.6750002"
       sodipodi:start="0"
       sodipodi:end="6.2505225"
       sodipodi:open="true"
       sodipodi:arc-type="arc"
       d="m 48.307305,103.13232 a 5.6750002,5.6750002 0 0 1 -5.62866,5.67481 5.6750002,5.6750002 0 0 1 -5.720583,-5.58214 5.6750002,5.6750002 0 0 1 5.535236,-5.765971 5.6750002,5.6750002 0 0 1 5.81098,5.487971" />
  </g>
  <g
     inkscape:groupmode="layer"
     id="layer3"
     inkscape:label="LED">
    <path
       style="fill:#ffffff;stroke:#000000;stroke-width:0.264583"
       id="path6"
       sodipodi:type="arc"
       sodipodi:cx="42.632298"
       sodipodi:cy="75.132301"
       sodipodi:rx="2.5"
       sodipodi:ry="2.5"
       sodipodi:start="0"
       sodipodi:end="6.2505225"
       sodipodi:open="true"
       sodipodi:arc-type="arc"
       d="m 45.132298,75.132301 a 2.5,2.5 0 0 1 -2.479586,2.499917 2.5,2.5 0 0 1 -2.520081,-2.45909 2.5,2.5 0 0 1 2.43843,-2.540077 2.5,2.5 0 0 1 2.559903,2.417608" />
  </g>
  <g
     inkscape:groupmode="layer"
     id="layer2"
     inkscape:label="Potentiometers">
    <path
       style="fill:#ffffff;fill-opacity:1;stroke:#000000;stroke-width:0.264583;stroke-opacity:1"
       id="path5-7"
       sodipodi:type="arc"
       sodipodi:cx="42.632309"
       sodipodi:cy="43.132309"
       sodipodi:rx="3.175"
       sodipodi:ry="3.175"
       sodipodi:start="0"
       sodipodi:end="6.2505225"
       sodipodi:open="true"
       sodipodi:arc-type="arc"
       d="m 45.807309,43.132309 a 3.175,3.175 0 0 1 -3.149074,3.174894 3.175,3.175 0 0 1 -3.200503,-3.123044 3.175,3.175 0 0 1 3.096806,-3.225897 3.175,3.175 0 0 1 3.251077,3.070361" />
    <path
       style="fill:#ffffff;fill-opacity:1;stroke:#000000;stroke-width:0.264583;stroke-opacity:1"
       id="path5"
       sodipodi:type="arc"
       sodipodi:cx="21.382299"
       sodipodi:cy="23.132309"
       sodipodi:rx="3.175"
       sodipodi:ry="3.175"
       sodipodi:start="0"
       sodipodi:end="6.2505225"
       sodipodi:open="true"
       sodipodi:arc-type="arc"
       d="m 24.557299,23.132309 a 3.175,3.175 0 0 1 -3.149074,3.174894 3.175,3.175 0 0 1 -3.200502,-3.123044 3.175,3.175 0 0 1 3.096806,-3.225897 3.175,3.175 0 0 1 3.251077,3.070361" />
    <path
       style="fill:#ffffff;fill-opacity:1;stroke:#000000;stroke-width:0.264583;stroke-opacity:1"
       id="path5-5"
       sodipodi:type="arc"
       sodipodi:cx="63.882309"
       sodipodi:cy="23.132309"
       sodipodi:rx="3.175"
       sodipodi:ry="3.175"
       sodipodi:start="0"
       sodipodi:end="6.2505225"
       sodipodi:open="true"
       sodipodi:arc-type="arc"
       d="m 67.057309,23.132309 a 3.175,3.175 0 0 1 -3.149074,3.174894 3.175,3.175 0 0 1 -3.200503,-3.123044 3.175,3.175 0 0 1 3.096806,-3.225897 3.175,3.175 0 0 1 3.251077,3.070361" />
  </g>
</svg>
